<?xml version="1.0" encoding="UTF-8"?><svg id="Capa_1" xmlns="http://www.w3.org/2000/svg" viewBox="0 0 1484.81 1204.88"><path d="M1243.01,128.35c57,81.29,4.08,166.06,55.53,246.83,20.61,32.35,49.07,51.01,74.62,78.12,30.67,32.55,51.74,76.52,62.74,120,12.92,51.08,3.99,98.91-43.43,129.9-31.53,20.61-66.12,26.99-78.38,64.97-24.07,74.54,40.56,143.85-11.13,220.13-57.24,84.47-185.57,44.58-281.7,46.19-152.93,2.56-305.94,1.71-458.83-2.69-121.58-3.49-270.27,7.86-385.85-33.69-52.13-18.74-105.54-61.36-131.05-108.6-31.45-58.23-24.15-151.41,16.39-205.87,59.9-80.48,212.64-23.24,265.18-116.75,36.8-65.5-33.04-102.36-32.12-165.73,2.04-140.83,167.64-149.7,278.11-158.98,74.96-6.3,122.95-36.02,160.56-93.54C789.01,63.97,848.58-7.65,964.94.66c103.34,7.38,218.69,43,278.07,127.69Z" style="fill:#b2e0f9; stroke-width:0px;"/><ellipse cx="717.93" cy="1156.19" rx="717.93" ry="48.69" style="fill:#a7dcf8; stroke-width:0px;"/><rect x="494.29" y="316.47" width="12.01" height="661.78" transform="translate(-114.17 107.17) rotate(-10.98)" style="fill:#e5a681; stroke-width:0px;"/><rect x="433.1" y="322.13" width="16.51" height="41.58" transform="translate(-57.14 90.15) rotate(-10.96)" style="fill:#3e497e; stroke-width:0px;"/><path d="M377.06,334.19l120.7-23.37c9.18-1.78,15-11.66,12.98-22.07l-153.97,29.81c2.01,10.41,11.1,17.41,20.28,15.63Z" style="fill:#3e497e; stroke-width:0px;"/><polygon points="569.09 971.08 557.29 973.37 550.15 936.5 561.95 934.22 569.09 971.08" style="fill:#3e497e; stroke-width:0px;"/><path d="M561.37,962.87c-3.25.63-5.38,3.78-4.75,7.04l3.36,17.34c.63,3.25,3.79,5.38,7.04,4.75,3.26-.63,5.39-3.78,4.76-7.03l-3.36-17.34c-.63-3.26-3.78-5.38-7.04-4.75ZM567.69,984.46c.22,1.14-.53,2.23-1.66,2.46-1.14.22-2.24-.52-2.46-1.66l-1.17-6.05c-.22-1.14.52-2.23,1.66-2.46,1.13-.22,2.24.52,2.46,1.66l1.17,6.06Z" style="fill:#3e497e; stroke-width:0px;"/><rect x="354.69" y="296.78" width="156.83" height="6.94" transform="translate(-49.17 87.78) rotate(-10.96)" style="fill:#94b7cc; stroke-width:0px;"/><rect x="573.12" y="335.7" width="12.01" height="661.78" style="fill:#e5a681; stroke-width:0px;"/><rect x="570.87" y="335.7" width="16.51" height="41.57" style="fill:#3e497e; stroke-width:0px;"/><rect x="573.12" y="959.93" width="12.01" height="37.55" style="fill:#3e497e; stroke-width:0px;"/><path d="M579.12,987.95c-3.31,0-6,2.69-6,6v17.66c0,3.32,2.69,6,6,6s6.01-2.69,6.01-6v-17.66c0-3.31-2.69-6-6.01-6ZM581.22,1010.35c0,1.16-.94,2.1-2.1,2.1s-2.09-.94-2.09-2.1v-6.16c0-1.16.94-2.1,2.09-2.1s2.1.94,2.1,2.1v6.16Z" style="fill:#3e497e; stroke-width:0px;"/><path d="M645.85,200.82l-7.53-8.48-9,.99-8.01-8.48-8.48,2.12-6.83-4.94-8.24,2.82-9.19-3.77-9.45,4.71-9.44-4.71-9.19,3.77-8.24-2.82-6.83,4.94-8.48-2.12-8.01,8.48-9-.99-7.53,8.48-9.36,1,30.14,102.67c13.19,23.54,37.69,31.21,37.69,31.21h16.51s24.5-7.67,37.69-31.21l30.14-102.67-9.36-1Z" style="fill:#94b7cc; stroke-width:0px;"/><path d="M614.7,306.88c-3.16,1.88-6.34,3.69-9.75,5.12-.55.23-.94-.41-.87-.87.7-4.18,2.19-8.17,2.16-12.41-1.32,1.18-2.62,2.32-3.7,3.77l-.97.25c-.52-.34-1.04-.69-1.55-1.03-1.69,2.63-4.11,4.62-5.96,7.14h-1.22c-2.81-4.36-2.46-9.59-4.11-14.29-1.61,6.9-4.91,12.35-10.32,17.26h-1c-3.98-5-4.89-11.43-6.49-17.48-1.2,4.31-3.32,8.3-5.11,12.39l-.8.33c-.74-.15-1.27-.62-1.86-.98-.02,1.71-.54,3.43-.1,5.06.19.71-.67,1.15-1.18.69-5.33-4.84-9-11.08-12.87-17.1.23,6.85.9,13.74-1.5,20.32l-1.18.31c-3.64-4.37-6.43-9.43-10.25-13.66-.7-.77-1.41-2.67-1.08-.6.21,1.27.41,2.54.59,3.82.2,1.41.35,2.81.46,4.22,13.57,19.91,34.8,26.56,34.8,26.56h16.51s12.89-4.04,25-15.24c1.1-4.49,2.38-8.95,2.32-13.58Z" style="fill:#6594ac; stroke-width:0px;"/><polygon points="508.59 201.23 512.4 200.82 514.89 198.02 537.3 292.25 508.59 201.23" style="fill:#6594ac; stroke-width:0px;"/><polygon points="524.95 192.9 528.94 193.34 533.51 188.5 546.48 266.11 524.95 192.9" style="fill:#6594ac; stroke-width:0px;"/><path d="M540.19,185.67l5.24,1.31s3.87-2.8,4.46-3.23c.59-.43,13.91,115.56,13.91,115.56l-23.61-113.64Z" style="fill:#6594ac; stroke-width:0px;"/><polygon points="557.26 183.75 560.49 184.86 565.84 182.67 570.87 276 557.26 183.75" style="fill:#6594ac; stroke-width:0px;"/><polygon points="575.01 183.75 579.12 185.8 584.19 183.28 581.22 302.37 575.01 183.75" style="fill:#6594ac; stroke-width:0px;"/><polygon points="649.68 201.23 645.87 200.83 643.37 198.02 620.96 292.26 649.68 201.23" style="fill:#6594ac; stroke-width:0px;"/><polygon points="633.32 192.91 629.33 193.35 624.76 188.51 611.78 266.11 633.32 192.91" style="fill:#6594ac; stroke-width:0px;"/><path d="M618.08,185.68l-5.24,1.31s-3.86-2.81-4.46-3.23c-.59-.43-13.91,115.56-13.91,115.56l23.61-113.64Z" style="fill:#6594ac; stroke-width:0px;"/><polygon points="601 183.76 597.77 184.87 592.42 182.68 587.4 276.01 601 183.76" style="fill:#6594ac; stroke-width:0px;"/><rect x="302.19" y="643.51" width="661.78" height="12.01" transform="translate(-127.01 1144.41) rotate(-78.8)" style="fill:#e5a681; stroke-width:0px;"/><rect x="672.53" y="337.06" width="41.58" height="16.51" transform="translate(219.88 958.33) rotate(-78.8)" style="fill:#3e497e; stroke-width:0px;"/><path d="M624.02,298.5c1.2,7.24,6.16,13.13,13.02,14.49l120.6,23.88c6.87,1.36,13.7-2.19,17.56-8.43l-151.19-29.93Z" style="fill:#3e497e; stroke-width:0px;"/><rect x="553.68" y="949.68" width="37.55" height="12.01" transform="translate(-476.2 1331.66) rotate(-78.8)" style="fill:#3e497e; stroke-width:0px;"/><path d="M570.66,964.76c-3.25-.65-6.41,1.47-7.05,4.72l-3.43,17.33c-.65,3.25,1.47,6.42,4.72,7.06,3.25.64,6.41-1.47,7.05-4.73l3.43-17.32c.64-3.25-1.47-6.42-4.73-7.06ZM568.37,987.13c-.23,1.14-1.33,1.88-2.47,1.65-1.14-.22-1.88-1.32-1.65-2.46l1.2-6.05c.22-1.14,1.33-1.88,2.46-1.65,1.14.23,1.88,1.33,1.65,2.47l-1.2,6.05Z" style="fill:#3e497e; stroke-width:0px;"/><polygon points="624.02 298.5 775.21 328.44 790.45 289.32 623.48 256.25 624.02 298.5" style="fill:#ec7577; stroke-width:0px;"/><polygon points="623.91 289.6 624.02 298.5 775.21 328.44 778.42 320.19 623.91 289.6" style="fill:#e95c6d; stroke-width:0px;"/><polygon points="632.06 257.95 638.45 259.22 631.87 292.42 632.06 257.95" style="fill:#e95c6d; stroke-width:0px;"/><polygon points="783.24 287.89 776.85 286.62 770.27 319.82 783.24 287.89" style="fill:#e95c6d; stroke-width:0px;"/><polygon points="670.02 265.47 676.41 266.74 666.64 299.3 670.02 265.47" style="fill:#e95c6d; stroke-width:0px;"/><polygon points="643.99 260.32 650.81 261.66 640.95 298.72 643.99 260.32" style="fill:#e95c6d; stroke-width:0px;"/><polygon points="770.35 285.34 763.54 283.99 758.53 322 770.35 285.34" style="fill:#e95c6d; stroke-width:0px;"/><polygon points="716.94 274.76 710.13 273.41 707.57 304.24 716.94 274.76" style="fill:#e95c6d; stroke-width:0px;"/><polygon points="658.08 263.11 665.36 264.55 656.71 289.12 658.08 263.11" style="fill:#e95c6d; stroke-width:0px;"/><polygon points="698.56 271.12 704.95 272.39 697.74 292.03 698.56 271.12" style="fill:#e95c6d; stroke-width:0px;"/><polygon points="685.4 268.52 692.68 269.96 682.47 302.44 685.4 268.52" style="fill:#e95c6d; stroke-width:0px;"/><polygon points="758.51 282.99 751.24 281.55 749.86 307.57 758.51 282.99" style="fill:#e95c6d; stroke-width:0px;"/><polygon points="743.89 280.1 737.07 278.75 732.06 316.76 743.89 280.1" style="fill:#e95c6d; stroke-width:0px;"/><polygon points="732.05 277.75 724.77 276.31 723.4 302.33 732.05 277.75" style="fill:#e95c6d; stroke-width:0px;"/><path d="M638.03,1044.23c15.26,0,15.25-18.22,15.25-18.22l14.87-320.82h-198.7l14.87,320.82s-.02,18.22,15.24,18.22h138.47Z" style="fill:#f9b13e; stroke-width:0px;"/><path d="M587.7,1044.23c15.26,0,15.24-18.22,15.24-18.22l14.87-320.82h-198.7l14.87,320.82s-.02,18.22,15.25,18.22h138.47Z" style="fill:#fdc740; stroke-width:0px;"/><polygon points="615.18 728.26 617.81 705.19 419.12 705.19 421.75 728.26 615.18 728.26" style="fill:#fab53f; stroke-width:0px;"/><path d="M688.15,714.18c0,4.96-4.02,8.99-8.99,8.99h-200.8c-4.96,0-8.99-4.02-8.99-8.99s4.02-8.99,8.99-8.99h200.8c4.96,0,8.99,4.02,8.99,8.99Z" style="fill:#fcc240; stroke-width:0px;"/><path d="M627,714.18c0,4.96-4.02,8.99-8.99,8.99h-200.8c-4.97,0-8.99-4.02-8.99-8.99s4.02-8.99,8.99-8.99h200.8c4.97,0,8.99,4.02,8.99,8.99Z" style="fill:#ffd340; stroke-width:0px;"/><rect x="395.99" y="699.08" width="304.4" height="28.76" style="fill:#84b6db; stroke-width:0px;"/><path d="M745.65,1132.22c0,18.81-15.24,34.05-34.05,34.05s-34.05-15.24-34.05-34.05,15.24-34.05,34.05-34.05,34.05,15.24,34.05,34.05Z" style="fill:#171d30; stroke-width:0px;"/><path d="M1032.61,1141.91c0,13.46-10.91,24.36-24.37,24.36s-24.37-10.9-24.37-24.36,10.91-24.37,24.37-24.37,24.37,10.91,24.37,24.37Z" style="fill:#3c4867; stroke-width:0px;"/><path d="M1019.92,1141.91c0,6.45-5.23,11.68-11.68,11.68s-11.68-5.23-11.68-11.68,5.23-11.68,11.68-11.68,11.68,5.23,11.68,11.68Z" style="fill:#171d30; stroke-width:0px;"/><path d="M1011.79,1138.51l-3.56-38.15h-31.09l25.93,41.54s2.49,4.59,7.02,2.02c0,0,2.36-.53,1.69-5.42Z" style="fill:#84b6db; stroke-width:0px;"/><rect x="585.32" y="699.08" width="23.97" height="384.91" style="fill:#abcbed; stroke-width:0px;"/><rect x="676.42" y="699.08" width="23.96" height="384.91" style="fill:#abcbed; stroke-width:0px;"/><path d="M1005.46,1106.51c6.22,0,11.26-5.04,11.26-11.27s-5.04-11.26-11.26-11.26h-420.14v22.53h420.14Z" style="fill:#abcbed; stroke-width:0px;"/><path d="M1005.46,1106.51c6.22,0,11.26-5.04,11.26-11.27s-5.04-11.26-11.26-11.26h-420.14v22.53h420.14Z" style="fill:#84b6db; stroke-width:0px;"/><path d="M880.85,1106.51c6.22,0,11.26-5.04,11.26-11.27s-5.04-11.26-11.26-11.26h-295.53v22.53h295.53Z" style="fill:#abcbed; stroke-width:0px;"/><path d="M919.66,1083.99c15.26,0,15.24-18.22,15.24-18.22l14.87-156.86h-198.7l14.87,156.86s-.02,18.22,15.25,18.22h138.46Z" style="fill:#f9b13e; stroke-width:0px;"/><path d="M869.33,1083.99c15.26,0,15.25-18.22,15.25-18.22l14.87-156.86h-198.7l14.87,156.86s-.02,18.22,15.25,18.22h138.47Z" style="fill:#fdc740; stroke-width:0px;"/><polygon points="896.81 931.97 899.45 908.91 700.75 908.91 703.38 931.97 896.81 931.97" style="fill:#fab53f; stroke-width:0px;"/><path d="M969.78,917.89c0,4.97-4.02,9-8.98,9h-200.81c-4.96,0-8.98-4.03-8.98-9s4.02-8.99,8.98-8.99h200.81c4.96,0,8.98,4.03,8.98,8.99Z" style="fill:#fcc240; stroke-width:0px;"/><path d="M908.64,917.89c0,4.97-4.02,9-8.99,9h-200.81c-4.96,0-8.98-4.03-8.98-9s4.02-8.99,8.98-8.99h200.81c4.96,0,8.99,4.03,8.99,8.99Z" style="fill:#ffd340; stroke-width:0px;"/><path d="M812.43,904.71c0,7.28-5.9,13.18-13.18,13.18s-13.18-5.9-13.18-13.18,5.9-13.18,13.18-13.18,13.18,5.9,13.18,13.18Z" style="fill:#ffd340; stroke-width:0px;"/><path d="M907.74,997.3c-14.33,0-22.91-8.63-23.28-9l-85.22-86.46v-1.69s1.71,0,1.71,0l85.22,86.47c.09.09,8.65,8.65,22.43,8.27h61.98s3.58-.6,4.66-3.25c.94-2.31-.25-5.75-3.43-9.96l-26.43-35.99c-.39-.53-.28-1.28.25-1.67.53-.4,1.28-.28,1.68.25l26.42,35.97c3.77,4.99,5.03,9.13,3.72,12.32-1.62,3.94-6.49,4.68-6.7,4.71h-62.12s-.89.02-.89.02Z" style="fill:#21263d; stroke-width:0px;"/><path d="M902.52,1141.91c0,13.46-10.91,24.36-24.36,24.36s-24.37-10.9-24.37-24.36,10.91-24.37,24.37-24.37,24.36,10.91,24.36,24.37Z" style="fill:#3c4867; stroke-width:0px;"/><path d="M889.84,1141.91c0,6.45-5.23,11.68-11.68,11.68s-11.68-5.23-11.68-11.68,5.23-11.68,11.68-11.68,11.68,5.23,11.68,11.68Z" style="fill:#171d30; stroke-width:0px;"/><path d="M881.71,1138.51l-3.55-38.15h-31.09l25.93,41.54s2.49,4.59,7.02,2.02c0,0,2.36-.53,1.69-5.42Z" style="fill:#abcbed; stroke-width:0px;"/><path d="M880.02,1138.43c0,1.59-1.29,2.88-2.88,2.88s-2.88-1.29-2.88-2.88,1.29-2.88,2.88-2.88,2.88,1.28,2.88,2.88Z" style="fill:#c9e8fb; stroke-width:0px;"/><path d="M640.74,1132.22c0,18.81-15.24,34.05-34.05,34.05s-34.05-15.24-34.05-34.05,15.25-34.05,34.05-34.05,34.05,15.24,34.05,34.05Z" style="fill:#3c4867; stroke-width:0px;"/><path d="M572.64,1132.22c0-18.81,15.25-34.05,34.05-34.05s34.05,15.24,34.05,34.05c0,0,15.88,2.34,14.69-14.68,0,0-3.6-38.03-46.87-37.99,0,0-41.21-2.92-50.19,37.99,0,0-3.44,14.68,14.28,14.68Z" style="fill:#abcbed; stroke-width:0px;"/><path d="M623.02,1132.22c0,9.02-7.31,16.33-16.33,16.33s-16.32-7.31-16.32-16.33,7.31-16.33,16.32-16.33,16.33,7.31,16.33,16.33Z" style="fill:#171d30; stroke-width:0px;"/><polygon points="724.56 1060.43 636.74 1060.43 632.55 1083.99 729.54 1083.99 724.56 1060.43" style="fill:#ffe193; stroke-width:0px;"/><polygon points="725.61 1065.4 724.56 1060.43 636.74 1060.43 635.86 1065.4 725.61 1065.4" style="fill:#f9b674; stroke-width:0px;"/><polygon points="724.56 1083.99 720.85 1083.99 720.85 1064.7 724.56 1083.99" style="fill:#f9b674; stroke-width:0px;"/><polygon points="636.74 1083.99 640.46 1083.99 640.46 1064.7 636.74 1083.99" style="fill:#f9b674; stroke-width:0px;"/><polygon points="702.51 1083.99 698.79 1083.99 700.65 1064.7 702.51 1083.99" style="fill:#f9b674; stroke-width:0px;"/><polygon points="717.63 1083.99 713.67 1083.99 715.08 1062.18 717.63 1083.99" style="fill:#f9b674; stroke-width:0px;"/><polygon points="644.22 1083.99 648.19 1083.99 646.78 1062.18 644.22 1083.99" style="fill:#f9b674; stroke-width:0px;"/><polygon points="675.25 1083.99 679.21 1083.99 677.23 1066.47 675.25 1083.99" style="fill:#f9b674; stroke-width:0px;"/><polygon points="709.44 1083.99 705.22 1083.99 707.33 1069.29 709.44 1083.99" style="fill:#f9b674; stroke-width:0px;"/><polygon points="685.93 1083.99 682.21 1083.99 684.07 1072.21 685.93 1083.99" style="fill:#f9b674; stroke-width:0px;"/><polygon points="693.57 1083.99 689.35 1083.99 691.45 1064.7 693.57 1083.99" style="fill:#f9b674; stroke-width:0px;"/><polygon points="651.1 1083.99 655.33 1083.99 653.22 1069.29 651.1 1083.99" style="fill:#f9b674; stroke-width:0px;"/><polygon points="659.6 1083.99 663.56 1083.99 662.15 1062.18 659.6 1083.99" style="fill:#f9b674; stroke-width:0px;"/><polygon points="666.48 1083.99 670.7 1083.99 668.59 1069.29 666.48 1083.99" style="fill:#f9b674; stroke-width:0px;"/><path d="M724.64,1060.51v-12.14c0-4.11-3.33-7.44-7.44-7.44h-72.94c-4.11,0-7.44,3.33-7.44,7.44v12.14h87.82Z" style="fill:#3e497e; stroke-width:0px;"/><path d="M670.48,1047.57c0,3.66-2.97,6.63-6.63,6.63s-6.63-2.97-6.63-6.63v-20.08c0-3.66,2.97-6.63,6.63-6.63s6.63,2.96,6.63,6.63v20.08Z" style="fill:#3e497e; stroke-width:0px;"/><path d="M718.85,1034.11h-55c-3.66,0-6.63-2.97-6.63-6.63s2.97-6.63,6.63-6.63h44.16s10.83,1.2,10.83,13.26Z" style="fill:#3e497e; stroke-width:0px;"/><rect x="636.82" y="1050.39" width="87.82" height="10.13" style="fill:#323a65; stroke-width:0px;"/><path d="M463.67,829.91c1.79,13.73,3.58,27.5,3.64,41.36.06,13.83-3.36,27.24-3.54,40.98-.08,5.5,2.5,12.39,5.42,4.81,1.58-4.08,2.4-12.66,3.11-16.53,0,6.38-3.79,36.61,4.33,33.28,2.53-4.96,2.53-9.51,4.77-31.21-.02,4.06-1.06,34.74,3.83,36.91,5.29,2.36,3.96-32.1,3.87-35.88.95,8.22,4.59,26.04,6.99,29.07,8.05,2.75,4.77-25.63,4.77-25.63-2.25-26.15,5.31-13.15,10.92-9.78,4.94,2.97,9.39.53,5.16-6.59-1.86-3.13-5.74-6.92-7.89-9.85-2.96-4.02-7.15-8.12-8.57-11.95-2.89-7.77-2.42-16.21-.78-24.13,1.44-6.99,3.18-14.68,2.77-14.86,0,0-19.1-8.27-38.79,0Z" style="fill:#4075ba; stroke-width:0px;"/><path d="M496.86,876.15c1.09,13.49,1.1,20.21,1.8,30.21.26,3.68.39,7.35.63,11.03.21,3.2.4,6.4.12,9.6-.18,2.06-.41,4.87-2.55,5.89,7.05.7,3.99-25.81,3.99-25.81-2.25-26.15,5.31-13.15,10.92-9.78,2.22,1.34,3.87,1.49,4.96.93-7.54-5.29-15.01-14.3-19.87-22.07Z" style="fill:#0069ae; stroke-width:0px;"/><path d="M465.2,911.85c.19-5.23,1.56-10.31,2.61-15.42.88-4.27,1.15-8.62,1.87-12.91.64-3.76,1.6-7.69,3.88-10.82,2.39-3.27,5.86-5.12,9.76-5.93-3.81-7.47-4.29-16.08-3.74-24.31.37-5.44,1.18-10.82,1.91-16.21-5.51.1-11.64,1.06-17.84,3.66,1.79,13.73,3.58,27.5,3.64,41.36.06,13.83-3.36,27.24-3.54,40.98-.05,3.85,1.2,8.38,2.95,8.15-1.25-2.66-1.63-5.63-1.52-8.55Z" style="fill:#0069ae; stroke-width:0px;"/><path d="M557.79,803.75c-1.79,13.72-3.58,27.49-3.64,41.35-.06,13.83,3.35,27.24,3.54,40.99.07,5.5-2.5,12.39-5.42,4.8-1.58-4.08-2.4-12.65-3.11-16.53,0,6.38,3.79,36.62-4.33,33.28-2.54-4.96-2.54-9.5-4.77-31.21.02,4.07,1.06,34.74-3.83,36.92-5.29,2.36-3.96-32.1-3.87-35.88-.96,8.23-4.59,26.04-6.99,29.07-8.05,2.76-4.77-25.63-4.77-25.63,2.25-26.15-5.31-13.16-10.92-9.78-4.94,2.97-9.39.53-5.15-6.59,1.86-3.13,5.73-6.92,7.89-9.85,2.95-4.02,7.15-8.13,8.57-11.95,2.89-7.77,2.42-16.21.79-24.13-1.44-6.99-3.19-14.68-2.77-14.86,0,0,19.1-8.27,38.79,0Z" style="fill:#4075ba; stroke-width:0px;"/><path d="M524.6,849.99c-1.09,13.49-1.1,20.2-1.8,30.21-.26,3.68-.4,7.35-.63,11.03-.21,3.2-.4,6.39-.12,9.6.18,2.06.41,4.86,2.55,5.88-7.05.71-4-25.8-4-25.8,2.25-26.15-5.31-13.16-10.92-9.78-2.22,1.33-3.87,1.49-4.95.93,7.53-5.29,15.01-14.29,19.87-22.07Z" style="fill:#0069ae; stroke-width:0px;"/><path d="M556.25,885.68c-.19-5.23-1.56-10.31-2.61-15.41-.88-4.27-1.15-8.62-1.88-12.91-.64-3.76-1.6-7.69-3.88-10.82-2.39-3.26-5.85-5.12-9.76-5.93,3.81-7.47,4.3-16.08,3.74-24.31-.37-5.44-1.18-10.82-1.91-16.21,5.5.1,11.64,1.06,17.83,3.67-1.79,13.72-3.58,27.49-3.64,41.35-.06,13.83,3.35,27.24,3.54,40.99.05,3.85-1.2,8.38-2.95,8.14,1.25-2.65,1.63-5.62,1.52-8.55Z" style="fill:#0069ae; stroke-width:0px;"/><rect x="430.34" y="837.67" width="270.04" height="16.26" style="fill:#abcbed; stroke-width:0px;"/><path d="M948.82,953.9s2.34,9.61-3.23,15.06l2.01,1.54s8.05-7.47,7.35-15.76l-6.13-.84Z" style="fill:#ec69a3; stroke-width:0px;"/><path d="M980.98,938.4l9.75,9.31s-11.45,9.26-12.11,15.22l-.22,5.08h-21.86l.22-7.95s.88-2.21-2.43-3.42l-20.32-4.75v-6.62l46.98-6.86Z" style="fill:#dff2fd; stroke-width:0px;"/><polygon points="942.61 944 934 945.26 934 951.89 942.61 953.9 942.61 944" style="fill:#ec69a3; stroke-width:0px;"/><rect x="955.04" y="968.01" width="25.03" height="9.48" style="fill:#aaddf9; stroke-width:0px;"/><polygon points="958.09 975.67 957.76 976.03 957.43 975.67 957.43 969.82 957.76 969.47 958.09 969.82 958.09 975.67" style="fill:#71cbf4; stroke-width:0px;"/><polygon points="960.89 975.67 960.56 976.03 960.22 975.67 960.22 969.82 960.56 969.47 960.89 969.82 960.89 975.67" style="fill:#71cbf4; stroke-width:0px;"/><polygon points="963.68 975.67 963.35 976.03 963.02 975.67 963.02 969.82 963.35 969.47 963.68 969.82 963.68 975.67" style="fill:#71cbf4; stroke-width:0px;"/><polygon points="966.49 975.67 966.15 976.03 965.82 975.67 965.82 969.82 966.15 969.47 966.49 969.82 966.49 975.67" style="fill:#71cbf4; stroke-width:0px;"/><polygon points="969.28 975.67 968.95 976.03 968.61 975.67 968.61 969.82 968.95 969.47 969.28 969.82 969.28 975.67" style="fill:#71cbf4; stroke-width:0px;"/><polygon points="972.08 975.67 971.75 976.03 971.42 975.67 971.42 969.82 971.75 969.47 972.08 969.82 972.08 975.67" style="fill:#71cbf4; stroke-width:0px;"/><polygon points="974.88 975.67 974.54 976.03 974.21 975.67 974.21 969.82 974.54 969.47 974.88 969.82 974.88 975.67" style="fill:#71cbf4; stroke-width:0px;"/><polygon points="977.67 975.67 977.34 976.03 977.01 975.67 977.01 969.82 977.34 969.47 977.67 969.82 977.67 975.67" style="fill:#71cbf4; stroke-width:0px;"/><path d="M958.16,977.49h19.51c6.22,11.49,15.38,22.16,15.38,22.16,4.7,5.74.53,12.99.53,12.99-4.06,16.78,1.77,56.15,1.77,56.15,3.53,6.54,2.12,11.13,2.12,11.13-.35,3.71-4.59,4.06-4.59,4.06h-49.09c-5.47-.35-5.47-4.77-5.47-4.77,0-4.86,3.53-10.24,3.53-10.24,11.3-20.31-1.59-49.8-1.59-49.8-1.94-8.87,3.73-13.79,3.73-13.79l8.48-8.47s4.48-3.83,4.97-7.11l.73-12.32Z" style="fill:#ec69a3; stroke-width:0px;"/><path d="M982.03,995.82c2.11,3.26,4.02,6.81,4.73,10.67.85,4.63-.5,9.19-1.14,13.78-.88,6.41-1.37,12.88-.97,19.34.37,6,1.29,12.18,3.44,17.82,1.57,4.1,3.89,7.82,7.01,10.92l.2.2c-.49-3.44-5.59-39.92-1.73-55.9,0,0,4.17-7.25-.53-12.99,0,0-9.16-10.67-15.38-22.16h-8.03c3.1,6.67,8.42,12.19,12.39,18.33Z" style="fill:#ef85b4; stroke-width:0px;"/><path d="M995.63,1069.33c-.68,1.94-1.66,3.76-3.14,5.2-7.75,7.57-23.83,6.36-33.47,3.83-3.3-.87-6.22-2.69-7.1-6.16-.97-3.82-.23-7.97.55-11.74.85-4.08,2.1-8.11,2.71-12.23,1.63-10.92-5.17-20.76-6.05-31.41-.32-3.89.9-7.41,3.58-10.24,2.67-2.81,6.02-4.83,8.89-7.41,1.55-1.4,3.13-2.99,4.1-4.86,1.13-2.18,1.64-4.62,1.84-7.05.26-3.26.05-6.51-.11-9.76h-9.27l-.73,12.32c-.49,3.28-4.97,7.11-4.97,7.11l-8.48,8.47s-5.67,4.92-3.73,13.79c0,0,12.89,29.49,1.59,49.8,0,0-3.53,5.38-3.53,10.24,0,0,0,4.42,5.47,4.77h49.09s4.24-.35,4.59-4.06c0,0,1.34-4.34-1.84-10.6Z" style="fill:#ea5297; stroke-width:0px;"/><path d="M990.73,1060.61c0-2.18-3.38-22.6-1.19-36.55,0,0-16.54-10.8-42.55,1.01,0,0,7.93,16.68,2.18,35.54,0,0,16.61,8.68,41.56,0Z" style="fill:#fec800; stroke-width:0px;"/><path d="M1048.79,557.33c-4.94,54.68-2.77,85.78,9.43,164.03l12.87-3.19c-.05-12.6,18.47-143.16,23.31-165.87,0,0-39.92-29.22-45.61,5.02Z" style="fill:#e89776; stroke-width:0px;"/><path d="M1072.45,736.04l-1.39,12.31,7.69,16.01s-2.92,2.8-6.45-2.42l-6.81-13.18.42-13.83,6.55,1.11Z" style="fill:#d0896b; stroke-width:0px;"/><path d="M1069.32,740.29l-2.08,12.22,6.78,16.42s-3.07,2.63-6.3-2.77l-6.07-13.54,1.2-13.78,6.47,1.46Z" style="fill:#d0896b; stroke-width:0px;"/><path d="M1055.72,743.48l1.73-14.32,1.84-17.76,11.01-1.91,4.44,18.51,1.26,9.76,1.57,13.32.74,4.3s-3.42,1.24-6.35-5.54l-3.26-12.51-4.45,10.07,4.66,17.26s-.73,9.12-3.57,5.78l-9.98-24.11.38-2.85Z" style="fill:#e89776; stroke-width:0px;"/><path d="M1073.35,748.74l8.71,21.91s-3.24,3.64-6.42,2.29c0,0,3.4,4.98-4.82,4.08l-9.36-24.52s6.6-11.61,11.88-3.76Z" style="fill:#fcc03f; stroke-width:0px;"/><path d="M1081.65,671.22l-3.35,43.59.12,20.42,3.23,26.85s-9.32.37-12.27-13.39l-2.95,4.44s11.09,16.71,2.56,24.76c0,0-2.34.35-4.69-3.7l-9.53-22.85,2.71-34.48-11.16-46.34s21.41-5.43,35.33.71Z" style="fill:#ffd940; stroke-width:0px;"/><path d="M1048.59,559.56c20.81,8.23,35.51,2.28,35.51,2.28,10.41-21.86,55.59-127.38,55.25-142.52,1.28-44.81-43.38-19.45-44.92-16.27,0,0-39.66,83.22-45.84,156.51Z" style="fill:#e89776; stroke-width:0px;"/><path d="M1151.57,415.92l-19.95,118.13c-18.06-5.56-58.96-10.76-77.48-20.46,16.39-57.61,29.86-98.45,29.86-98.45,0,0,10.61-28.18,40.59-26.09,0,0,26,3.74,26.99,26.87Z" style="fill:#122c50; stroke-width:0px;"/><path d="M1171.11,686.81c7.52,26.45,31.13,43.76,57.86,43.75.71,0,1.43-.01,2.15-.04.81-.03,1.44-.7,1.42-1.5-.03-.81-.7-1.44-1.5-1.42-.69.02-1.38.03-2.06.03-25.46,0-47.87-16.43-55.05-41.63-.22-.78-1.03-1.23-1.81-1-.78.22-1.23,1.03-1.01,1.81h0Z" style="fill:#21263d; stroke-width:0px;"/><path d="M1151.44,1158.68l-88.67-.23c1.18-10.35,9.23-12.63,9.23-12.63l25.58-7.7,5.89-3.53,9.88-5.88-.58-22.27h38.67l-2.62,26.61,2.61,26.61" style="fill:#050607; stroke-width:0px;"/><path d="M1308.13,1139.05l-42.24,27.22h-42.15c-2.09-10.2,4.87-14.86,4.87-14.86l21.94-8.47,4.51-5.18,7.57-15.41-7.45-20.99,36.78-11.97,5.75,26.12,10.72,24.5" style="fill:#050607; stroke-width:0px;"/><path d="M1300.82,1112.87c-16.17-135-63.49-305.39-63.49-305.39,0,0-62.25,11.25-66.39,55.13l84.91,261.56s29.4,6.21,44.97-11.3Z" style="fill:#0086cd; stroke-width:0px;"/><path d="M1090.86,883.49s27.76,28.89,72.93-34.68c0,0,8.73-105.34,21.46-180.26l-97.55-1.84-1.95,59.68s1.23,82.45,5.1,157.09Z" style="fill:#0086cd; stroke-width:0px;"/><path d="M1244.76,856.1c-42.66,45.17-73.17,9.22-73.17,9.22-9.33-73.19-30.4-201.68-30.4-201.68,0,0,107.66-16.61,117.53,51.17,0,0-10.13,65.84-13.96,141.29Z" style="fill:#0086cd; stroke-width:0px;"/><path d="M1091.68,896.33l19.41,228.37,42.34,2.1s10.27-290.71,10.14-289.86c-.13.85-81.87-36.89-71.89,59.38Z" style="fill:#0086cd; stroke-width:0px;"/><path d="M1243.79,616.04h-148.74c-5.67,23.58-9.3,39.1-9.3,110.37h165.28c3.44-13.41.38-48.73-.34-52.34l-6.91-58.03Z" style="fill:#122c50; stroke-width:0px;"/><path d="M1211.85,310.01c.6-1.76,1.11-3.29,1.53-4.44,7.04-19.22,10.63-53.73-17.3-61.68-27.31-7.77-20.12,40.31-21.03,52.5-1.06,14.09-2.95,19.55,3.44,32.43,2.41,4.84,5.03,9.23,10.76,8.46,6.34-.84,19.76-18.88,22.61-27.26Z" style="fill:#452425; stroke-width:0px;"/><rect x="1144.4" y="328.92" width="57.75" height="46.44" transform="translate(770.29 1508.94) rotate(-87.5)" style="fill:#e89776; stroke-width:0px;"/><path d="M1182.17,355.63c5.08-9.57,8.29-19.32,8.06-31.65l-38.89-1.7-2.19,50.15c12.3-1.34,27.61-6.62,33.03-16.8Z" style="fill:#cf7e67; stroke-width:0px;"/><path d="M1221.87,386.61l-26.29-13.1h-45.3l-20.27,13.77s-3.29,28.67,25.23,37.45c0,0,61.04,10.55,66.63-38.12Z" style="fill:#e89776; stroke-width:0px;"/><path d="M1086.42,705.76s52.96,31.32,171.67-2.83l-7.87-174.36,14.01-99.85c4.24-19.91-13.3-31.81-13.3-31.81l-48.05-19.77c-35.35,34.62-58.75.54-58.75.54l-38.76,13.46s-19.76,11.39-20.28,36.47l5.02,108.35-3.69,169.81Z" style="fill:#122c50; stroke-width:0px;"/><path d="M1153.55,256.41c9.81-2.37,6.67,5.45,3.85,14.79l-13.7,6.07c-11.55,5-5.09,12.11-6.6,22.1-.62,4.11-2.19,8.11-3.03,12.09-2.61-4.2-6.89-24.18-7.01-28.97,0,0-3.42-20.72,10.74-25.01,0,0,9.67-1.87,15.74-1.06Z" style="fill:#452425; stroke-width:0px;"/><path d="M1197.73,324.31c-3.13,10.34-11.03,22.41-19.94,29-8.73,6.44-18,10.14-27.51,3.55-7.57-5.24-12.87-13.37-16.17-21.73-7.6-19.25-5.41-46.98,5.8-63.97,12.31-18.65,39.29-17.02,51.24,1.61,9.74,15.17,11.63,34.86,6.58,51.54Z" style="fill:#e89776; stroke-width:0px;"/><path d="M1178.49,315.18c.04,1.57-2.81,2.92-6.35,3.02-3.55.09-6.47-1.11-6.51-2.67-.04-1.57,2.81-2.92,6.36-3.01,3.55-.1,6.46,1.1,6.5,2.67Z" style="fill:#d8876d; stroke-width:0px;"/><path d="M1146.93,315.18c.05,1.57-2.8,2.92-6.35,3.02-3.55.1-6.46-1.1-6.5-2.67-.04-1.57,2.8-2.92,6.35-3.01,3.55-.1,6.46,1.1,6.5,2.66Z" style="fill:#d8876d; stroke-width:0px;"/><path d="M1157.62,320.16c-.81.31-2.01.5-3.18.5-1.17,0-2.32-.2-3.01-.52l-.66-.44-.1-.26.29-.79.08-.13,4.01-11.35c.27-.76-.13-1.6-.89-1.86-.76-.27-1.6.13-1.86.89l-3.96,11.21,1.38.49-1.25-.76c-.45.74-.72,1.51-.72,2.31,0,.81.31,1.59.79,2.14,1.47,1.63,3.7,1.96,5.91,2.01,1.47,0,2.94-.22,4.2-.68.76-.28,1.14-1.12.86-1.88-.28-.76-1.12-1.14-1.88-.86h0Z" style="fill:#cf7e67; stroke-width:0px;"/><path d="M1138.44,298.76c.8-.56,2.74-1.45,5.22-1.44,1.62,0,3.5.35,5.59,1.39.94.47,2.08.09,2.55-.85.47-.94.09-2.08-.85-2.55-2.62-1.31-5.11-1.79-7.29-1.79-3.37,0-5.92,1.12-7.38,2.11-.86.6-1.08,1.78-.48,2.64.6.86,1.78,1.08,2.64.48h0Z" style="fill:#452425; stroke-width:0px;"/><path d="M1177.96,295.7c-2.14-1.67-4.96-2.53-7.83-2.54-2.58,0-5.26.73-7.34,2.56-.79.69-.86,1.89-.17,2.68.69.79,1.89.86,2.68.17,1.19-1.06,2.95-1.61,4.83-1.61,2.07-.01,4.19.7,5.48,1.73.82.65,2.02.51,2.67-.31.65-.82.51-2.02-.31-2.67h0Z" style="fill:#452425; stroke-width:0px;"/><path d="M1141.04,239.6s21.07-6.29,42.24-2.59c4.55.79,6.74,4.46,9.83,7.45,4.22,4.09,7.89,3.21,13,5.27,3.72,1.5,6.3,3.97,5.62,8.29-.83,5.27-4.62,8.7-6.53,13.23-2.29,5.41,1.67,15.58,2.47,21.9.34,2.71,0,6.57.94,9.14-1.11-2.99-5.6-8.17-9.92-3.61-1.8,1.91-2.47,10.74-3.25,13.14-1.04,3.19-1.78,2.05-4.61,2.29-1-9.14-.4-35.32-10.19-35.47-2.71-.05-6.37,1.8-9.03,2.39-6.59,1.45-13.88,4.88-20.14,2.33-27.24-11.09-23.87-8.61-24.76-18.64,0,0,.37-19.72,14.34-25.13Z" style="fill:#452425; stroke-width:0px;"/><path d="M1142.68,301.36c-1.28.07-2.2,1.69-2.06,3.6.14,1.91,1.29,3.4,2.57,3.32,1.29-.08,2.2-1.69,2.06-3.6-.14-1.91-1.29-3.4-2.57-3.33Z" style="fill:#21263d; stroke-width:0px;"/><path d="M1172.98,304.69c-.14-1.92-1.28-3.4-2.57-3.33-1.28.07-2.2,1.69-2.06,3.6.13,1.91,1.29,3.41,2.57,3.33,1.28-.08,2.2-1.69,2.06-3.6Z" style="fill:#21263d; stroke-width:0px;"/><path d="M1167.36,328.61c.77.11,1.15.62.79,1.27,0,0-4.18,7.48-10.23,7.49-6.07.01-10.29-7.45-10.29-7.45-.41-.73.07-1.32,1.05-1.33,0,0,10.47-.1,18.69.02Z" style="fill:#e89776; stroke-width:0px;"/><path d="M1152.63,332.37c1.38.48,3.14.8,4.89.81,1.45,0,2.91-.21,4.17-.92.7-.4.94-1.3.54-2-.4-.7-1.3-.94-1.99-.54-.52.31-1.56.53-2.71.52-1.38,0-2.91-.28-3.92-.64-.76-.27-1.6.13-1.87.89-.27.76.13,1.6.89,1.87h0Z" style="fill:#cf7e67; stroke-width:0px;"/><path d="M1280.69,570.21c-9.81,3.67-22.39-25.56-25.09-33.63-23.22-69.57-43.65-99.85-41.08-116.47-.75-3.45,21.42-46.99,48.08-10.95,9.61,11.7,46.33,126.97,42.66,149.55,0,0-3.13,5.14-24.57,11.5Z" style="fill:#e89776; stroke-width:0px;"/><path d="M1307.71,491.63l-40.44-77.87s-10.74-14.61-19.94-18.33c0,0-41.77-13.11-37.68,49.27l33.66,80.78s34.56-9.13,64.41-33.85Z" style="fill:#122c50; stroke-width:0px;"/><path d="M1211.83,305.57c.72,5.88-1.85,12.92-6.89,15.94-6.84,4.09-10.32-2.21-11.01-8.67-.56-5.2.76-14.41,6.46-16.9,5.38-2.34,10.84,4.8,11.43,9.63Z" style="fill:#e89776; stroke-width:0px;"/><path d="M1303.25,573.95c55.25-30.73,44.84-23.8,90.54-86.38l-13.8-9.08c-61.72,52.62-99.52,58.58-120.08,69.35,0,0,13.36,43.6,43.35,26.11Z" style="fill:#e89776; stroke-width:0px;"/><path d="M1202.94,299.45c-2.85,1.87-4.1,5.49-4.11,9.57,0,2.57.51,5.37,1.56,8.19.28.76,1.13,1.14,1.89.86.76-.28,1.14-1.13.86-1.88-.94-2.51-1.37-4.99-1.37-7.17-.01-3.52,1.16-6.13,2.76-7.11.68-.44.88-1.34.44-2.02-.44-.68-1.34-.88-2.02-.44h0Z" style="fill:#cf7e67; stroke-width:0px;"/><path d="M1207.74,305.09c-1.14-.38-2.58-.69-4.06-.7-1.3,0-2.69.23-3.87,1.11-.65.49-.77,1.41-.28,2.05.49.65,1.41.77,2.05.29.4-.32,1.16-.53,2.1-.52,1.05,0,2.24.25,3.13.54.77.26,1.6-.16,1.85-.92.26-.77-.16-1.6-.92-1.85h0Z" style="fill:#cf7e67; stroke-width:0px;"/><polygon points="1254.07 750.08 1259.91 705.76 1249.68 474.68 1218.23 446.77 1231.55 388.94 1218.23 383.58 1197.88 438.27 1129.63 438.27 1120.96 385.72 1108.94 389.89 1106.69 444.94 1088.87 467.14 1085.09 677.74 1086.51 750.08 1254.07 750.08" style="fill:#0086cd; stroke-width:0px;"/><path d="M1151.45,659.96c.03,5.29.03,10.08.03,14.44,0,18.35-.18,29.05-.18,36.73,0,9.3.27,14.26,1.44,22.84,5.37,39.26,11.14,100.06,18.92,131.91,6.12,25.06,14.55,48.54,36.3,115.54.25.77,1.07,1.19,1.84.94.77-.25,1.19-1.07.94-1.84-21.76-67.03-30.18-90.5-36.24-115.33-7.69-31.43-13.49-92.29-18.86-131.61-1.16-8.49-1.42-13.18-1.42-22.44,0-7.64.18-18.37.18-36.73,0-4.37,0-9.17-.03-14.46,0-.81-.66-1.46-1.47-1.45-.81,0-1.46.66-1.45,1.47h0Z" style="fill:#171a2f; stroke-width:0px;"/><polygon points="1207.28 563.92 1207.28 562.46 1123.46 562.46 1123.46 479.94 1205.82 479.94 1205.82 563.92 1207.28 563.92 1207.28 562.46 1207.28 563.92 1208.74 563.92 1208.74 478.48 1208.31 477.44 1207.28 477.02 1121.99 477.02 1120.96 477.44 1120.53 478.48 1120.53 563.92 1120.96 564.95 1121.99 565.38 1207.28 565.38 1208.31 564.95 1208.74 563.92 1207.28 563.92" style="fill:#171a2f; stroke-width:0px;"/><path d="M1212.09,656.78c1.1,14.97,1.36,30.62,9.7,44.29,8.1,13.28,20.87,19.55,35.9,21.46.8.1,1.53-.46,1.64-1.26.1-.8-.46-1.53-1.26-1.64-14.49-1.89-26.17-7.68-33.78-20.09-7.84-12.78-8.2-27.88-9.28-42.98-.06-.8-.76-1.41-1.56-1.35-.8.06-1.41.76-1.35,1.56h0Z" style="fill:#171a2f; stroke-width:0px;"/><path d="M1086.29,728.4c.8.07,1.58.1,2.36.1,12.71,0,22.38-8.72,28.72-20.69,6.38-12,9.64-27.42,9.65-41.73,0-3.56-.2-7.06-.62-10.41-.1-.8-.83-1.37-1.63-1.27-.8.1-1.37.83-1.27,1.63.4,3.22.59,6.6.59,10.05,0,13.87-3.21,28.92-9.31,40.36-6.13,11.47-14.91,19.14-26.14,19.13-.7,0-1.4-.03-2.12-.09-.8-.07-1.51.53-1.58,1.34-.07.8.53,1.51,1.34,1.58h0Z" style="fill:#171a2f; stroke-width:0px;"/><path d="M1134.08,490.86h59.08c.81,0,1.46-.66,1.46-1.46s-.65-1.46-1.46-1.46h-59.08c-.81,0-1.46.65-1.46,1.46s.65,1.46,1.46,1.46" style="fill:#171a2f; stroke-width:0px;"/><path d="M1432.52,429.21s13.11,10.85-.31,34.82c-4.19,7.47-10.16,10.78-16.68,13.44-8.31,5.73-40.23,50.82-40.23,50.82-19.46-4.2-30.11-34.95-30.11-34.95l53.64-33.03c.99-4.89,1.95-17.31,9.55-24.35,0,0,8.59-4.42,24.15-6.75Z" style="fill:#ffd940; stroke-width:0px;"/><path d="M1100.17,613.93c21.37,6.38,46.12,8.72,69.39,8.72,4.92,0,9.78-.11,14.52-.3,18.87-.79,37.78.67,55.86-5.94.76-.28,1.15-1.12.87-1.87-.28-.76-1.12-1.15-1.87-.87-17.29,6.35-35.87,5-54.97,5.77-4.71.19-9.53.29-14.41.29-23.08,0-47.58-2.33-68.55-8.6-.77-.23-1.59.21-1.82.98-.23.77.21,1.59.98,1.82h0Z" style="fill:#171a2f; stroke-width:0px;"/><path d="M1122.51,266.88c4.75-17.38,9.46-22.62,13.72-27.25,13.86-15.11,29.78-17.11,49.32-14.07,21.42,3.33,32.7,27.62,33.92,46.86,0,0-90.52,14.65-96.96-5.55Z" style="fill:#122c50; stroke-width:0px;"/><path d="M1178.63,222.82c4.66,4.93-4.7,4.74-7.45,3.54-7.55-3.3,3.53-7.69,7.45-3.54Z" style="fill:#0086cd; stroke-width:0px;"/><path d="M1213.55,273.1c-1.73,0-32.73,26.35-109.54,14.77,0,0-30.5-4.74,20.25-21.22l89.29,6.45Z" style="fill:#0086cd; stroke-width:0px;"/><rect x="1408.3" y="344.02" width="10.89" height="599.85" style="fill:#e5a681; stroke-width:0px;"/><rect x="1406.25" y="344.02" width="14.97" height="37.68" style="fill:#3e497e; stroke-width:0px;"/><path d="M1358.02,344.02h111.44c8.48,0,15.35-7.79,15.35-17.4h-142.15c0,9.61,6.87,17.4,15.35,17.4Z" style="fill:#3e497e; stroke-width:0px;"/><rect x="1408.3" y="909.83" width="10.89" height="34.04" style="fill:#3e497e; stroke-width:0px;"/><path d="M1413.74,935.23c-3.01,0-5.44,2.44-5.44,5.44v16.01c0,3.01,2.44,5.45,5.44,5.45s5.45-2.43,5.45-5.45v-16.01c0-3.01-2.44-5.44-5.45-5.44ZM1415.64,955.53c0,1.05-.85,1.9-1.9,1.9s-1.9-.85-1.9-1.9v-5.59c0-1.05.85-1.9,1.9-1.9s1.9.85,1.9,1.9v5.59Z" style="fill:#3e497e; stroke-width:0px;"/><rect x="1342.66" y="320.32" width="142.15" height="6.29" style="fill:#94b7cc; stroke-width:0px;"/><path d="M199.4,276.95c-8.66,27.77,1.21,71.32,3.58,99.76,3.09,37.15.66,74.93-26.53,102.7,30.65,2.23,48.46-37.59,53.34-61.05,6.02-28.94.1-58.92-1.08-87.84-.66-16.1-5.03-44.88,5.54-57.5,10.35-12.35,17.57.94,29.52-3,16.86-5.54,4.87-19.19-6.75-23.59-28.91-10.96-51.21,9.97-57.62,30.51Z" style="fill:#664622; stroke-width:0px;"/><path d="M342.03,1163.79l81.36-.03c-1.08-9.42-9.03-11.69-9.03-11.69l-23.3-7.01-5.36-3.22-8.99-5.35.53-20.28h-35.22l2.38,24.23-2.38,24.23" style="fill:#050607; stroke-width:0px;"/><path d="M249.56,1146.95c-5.65-12.58-10.9-27.68-10.9-27.68h-17.05s-9.98,26.53-9.98,26.53c0,0-3.75,14.65-.2,16.71,0,0,24.01,6.11,41.94-2.16,0,0-2.39-10.22-3.82-13.4Z" style="fill:#050607; stroke-width:0px;"/><path d="M236.38,294.45c-.7,7.99.01,16.11,1.76,23.22,1.79,7.29,4.91,15.65,8.95,22,6.19,9.75,14.47,18.23,24.34,24.24,5.32,3.24,11.54-6.46,17-7.51,7.17-1.38,11.84-4.71,16.93-9.76,15.65-15.48,35.89-35.82,30.55-59.99-3.1-13.98-7.94-25-22.13-29.22-21.8-6.48-54.24-7-69.5,13.29-4.8,6.38-7.2,15.87-7.89,23.72Z" style="fill:#78532a; stroke-width:0px;"/><path d="M311.43,441.9l48.81,116.33s13.4,26.71,32.46,14.51c0,0,2.23-6.5-10.12-46.56l-21.69-95.54s-18.49-52.57-51.87-24.61c0,0-8.21,13.72,2.41,35.87Z" style="fill:#f7b6a0; stroke-width:0px;"/><path d="M507.38,665.31c-7.93,1.51-46.88-15.68-46.36-23.46.9-13.53,30.34-20.52,40.09-20.82-3.66,5.54-12.99,6.63-18.72,10.29,11.71,5.31,25.04,6.83,35.59,12.49-1.65,4.71-16.25.5-21.37.08,6.58,4.47,15.16,1.49,21.25,5.44-1.59,3.79-17.2,3.71-22.05-.51,3.44,3.88,18.36,7.4,18.36,7.4.3,6.09-16.06.65-19.23-.95,1.94,2.75,16.7,7.22,12.43,10.02Z" style="fill:#f7b6a0; stroke-width:0px;"/><path d="M463.14,645.79l8.22-11.26c-59.85-54.91-82.52-86.37-82.52-86.37,0,0-16.63-12.93-28.52,5.55,0,0-.11,22.22,20.75,36.79,0,0,38.02,35.76,82.08,55.28Z" style="fill:#f7b6a0; stroke-width:0px;"/><path d="M522.06,642.83c2.7,2.13-1.35,4.12-4.79,3.51,4.99,1.75,6.62,8.8-.62,7.94,1.53,3.89-.32,7.25-4.64,8,.63,7.09-6.02,5.37-10.33,3.76-10.61-3.94-21.13-8.12-31.53-12.58-15.96-6.85-37.53-22.72-47.51-30.42-2.33-5.86,14.34-21.37,15.67-20.04,7.44,7.44,21.02,18.35,31.33,23.9,0,0,17.63-5.99,32.27-8.31,0,0,4.99,2.77-10.31,12.54,0,0,23.65,6.36,30.46,11.71Z" style="fill:#ffd940; stroke-width:0px;"/><path d="M338.45,526.02c24.83,0,41.45-11.67,47.55-21l-24.02-73.09c-8.32-32.03-31.43-35.98-31.43-35.98-32.77,17.1-18.46,59.65-18.46,59.65,5.84,25.95,16.07,50.33,26.36,70.42Z" style="fill:#122c50; stroke-width:0px;"/><path d="M319.79,548.26c29.62-73.22,16.04-150.5,16.04-150.5-22.03-7.33-31.65-11.14-31.65-11.14l-34.52.04s-37.18,10.76-63.06,23.29l36.99,138.39,76.2-.08Z" style="fill:#f7b6a0; stroke-width:0px;"/><rect x="256.96" y="342.66" width="57.64" height="38.88" transform="translate(-84.32 637.43) rotate(-88.37)" style="fill:#f7b6a0; stroke-width:0px;"/><path d="M276.87,364.44c-4.94-9.69-6.21-20.15-6.52-31.62l35.68,1.02-1.44,50.08c-10.17-2.16-22.73-9.69-27.73-19.48Z" style="fill:#f2937c; stroke-width:0px;"/><path d="M370.89,1123.67c-5.99-294.02-5.59-404.15-5.59-404.15l-79.62-2.24c16.1,106.9,52.02,333.34,63.64,406.39h21.57Z" style="fill:#f7b6a0; stroke-width:0px;"/><path d="M198.48,741.26c-8.01-64.4,25.2-156.73,41.95-175.35,64.56,10.66,99.29,1.7,99.29,1.7,17.84,33.88,32.47,85.53,27.74,154.05l-168.98,19.6Z" style="fill:#0086cd; stroke-width:0px;"/><path d="M285.78,766.07s-7.18,120.35-27.55,365.31c0,0-37.22,6.28-51.24-.92-5.76-144.89-5.76-240.05-5.76-240.05l-4.27-173.55s114.73-58.5,88.82,49.21Z" style="fill:#0086cd; stroke-width:0px;"/><path d="M381.03,1135.52c-.04,18.26-36.02,1.95-36.02,1.95-32.82-111.14-34.9-241.17-34.9-241.17l-36.36-183.97c9.23-48.14,94.38-37.91,94.38-37.91,0,0,13.63,102.23,12.9,461.1Z" style="fill:#0086cd; stroke-width:0px;"/><path d="M266.45,998.03h-.12c-.73-.08-1.27-.72-1.21-1.45,1.96-22.29,4.57-47.33,6.87-69.42,1.94-18.68,3.62-34.8,4.52-45.48,2.22-26.4,3.05-40.32,3.59-49.54.19-3.19.34-5.73.5-7.92,3.71-51.32,4.45-72.39,5.05-89.32.15-4.29.29-8.34.47-12.56,1.19-28.11,1.79-36.26,2.23-42.21.39-5.27.64-8.76,1.07-22.93.02-.73.74-1.24,1.37-1.29.74.02,1.31.63,1.29,1.37-.43,14.22-.69,17.73-1.08,23.04-.44,5.93-1.03,14.05-2.22,42.12-.18,4.21-.32,8.25-.47,12.54-.59,16.95-1.34,38.05-5.05,89.42-.16,2.19-.31,4.71-.5,7.89-.54,9.23-1.37,23.18-3.6,49.6-.9,10.71-2.58,26.84-4.53,45.53-2.3,22.08-4.9,47.11-6.86,69.38-.06.7-.64,1.22-1.33,1.22Z" style="fill:#15182c; stroke-width:0px;"/><path d="M250.3,318.79c-.29,7.14,3.48,15.33,9.84,18.46,8.61,4.24,12.17-3.68,12.36-11.49.15-6.31-2.34-17.24-9.43-19.65-6.69-2.29-12.54,6.83-12.77,12.69Z" style="fill:#f7b6a0; stroke-width:0px;"/><path d="M267.69,338.64c3.83,10.39,9.21,18.99,18.75,25.18,9.34,6.06,19.06,9.29,28.4,1.97,7.43-5.83,12.37-14.49,15.24-23.25,6.61-20.19,2.67-48.46-9.85-65.18-13.75-18.36-41.28-15.05-52.4,4.78-9.05,16.14-6.34,39.73-.15,56.51Z" style="fill:#f7b6a0; stroke-width:0px;"/><path d="M260.52,331.05l-.39-.06c-.7-.21-1.1-.97-.88-1.67,1.97-6.41.93-12.89-2.37-14.73-.64-.36-.87-1.17-.51-1.82.36-.65,1.17-.87,1.82-.51,4.5,2.52,6.01,10.03,3.61,17.85-.18.57-.7.94-1.27.94Z" style="fill:#f2937c; stroke-width:0px;"/><path d="M254.26,320.91c-.53,0-1.03-.32-1.24-.84-.27-.68.06-1.47.74-1.74,2.43-.98,5.8-1.51,7.98-.08.62.4.79,1.24.38,1.85-.4.61-1.23.78-1.85.38-1.22-.8-3.72-.4-5.51.32l-.5.1Z" style="fill:#f2937c; stroke-width:0px;"/><path d="M317.27,315.89c.07,2.26,1.23,4.07,2.6,4.01,1.36-.04,2.4-1.91,2.32-4.17-.07-2.27-1.24-4.07-2.59-4.02-1.36.05-2.4,1.91-2.33,4.18Z" style="fill:#21263d; stroke-width:0px;"/><path d="M287.81,316.85c.07,2.26,1.23,4.07,2.59,4.02,1.36-.04,2.4-1.92,2.32-4.18-.07-2.26-1.22-4.07-2.58-4.02-1.37.04-2.41,1.91-2.33,4.18Z" style="fill:#21263d; stroke-width:0px;"/><path d="M307.98,335.23c-.67,0-1.25-.51-1.33-1.19-.08-.73.45-1.39,1.18-1.47,3.94-.42,5.38-2.15,5.73-2.67l.36-1.03c-.49-.4-2.04-1.09-2.91-1.48-1.58-.7-2.43-1.1-2.88-1.59-1.68-1.82-2.28-3.9-3.36-11.73-.1-.73.41-1.4,1.14-1.5.73-.1,1.4.41,1.5,1.14,1.04,7.48,1.55,9.06,2.68,10.28.2.16,1.29.65,2.01.97,2.56,1.15,4.03,1.85,4.36,3.02.31,1.09.07,2.3-.69,3.41-1.38,2.05-4.17,3.45-7.65,3.83h-.15Z" style="fill:#f2937c; stroke-width:0px;"/><path d="M283.37,326.66c.05,1.62,3.04,2.83,6.7,2.71,3.64-.12,6.55-1.52,6.5-3.13-.05-1.62-3.05-2.82-6.69-2.7-3.65.12-6.56,1.52-6.5,3.13Z" style="fill:#f2937c; stroke-width:0px;"/><path d="M315.9,325.61c.05,1.61,3.05,2.82,6.69,2.7,3.64-.13,6.56-1.52,6.51-3.14-.05-1.61-3.06-2.82-6.7-2.69-3.64.11-6.57,1.52-6.5,3.13Z" style="fill:#f2937c; stroke-width:0px;"/><path d="M284.12,310.38l-1.23-.43c-.87-.68-1.02-1.94-.33-2.8,2.95-3.75,10.45-4.33,14.59-1.14.87.68,1.04,1.93.36,2.8-.67.87-1.92,1.03-2.8.36-2.55-1.97-7.56-1.42-9.02.44-.39.5-.98.76-1.57.76Z" style="fill:#78532a; stroke-width:0px;"/><path d="M325.65,310.05l-1.34-.51c-2.39-2.15-7.42-1.98-9.03-.25-.75.81-2.01.86-2.82.12-.81-.74-.86-2.01-.12-2.82,3.23-3.51,10.75-3.52,14.64-.02.82.74.89,2,.15,2.82-.39.44-.94.66-1.48.66Z" style="fill:#78532a; stroke-width:0px;"/><path d="M272.16,320.82c-4.6-1.34-6.34-3.4-7.24-5.8-.28-3.66-2.63-6.86-6.96-7.14-3.1-.2-6.2,4.42-7.17,7.52-.12-3.29.08-8.02.13-11.53.06-3.33.34-6.9.85-10.31,1.16-7.94,1.92-12.29,5.92-19.66,4.3-7.92,10.85-13.98,19.96-16.01,10.99-2.44,28.89-4.19,37.98,2.76,4.66,3.57.68,4.33-.43,19.29,0,0-42.52-11.48-43.04,40.89Z" style="fill:#78532a; stroke-width:0px;"/><path d="M331.81,305.45c6.15-13.28,8.88-35.98-15.72-45.67-6.04-2.38-20.89-4.22-25.99,1.07-11.29,11.71,13.16,17.2,19.73,18.06,10.46,1.36,17.51,4.45,21.99,26.54Z" style="fill:#78532a; stroke-width:0px;"/><path d="M301.29,343.74c-5.08,0-8.97-3.52-10.45-7.66-.25-.69.11-1.46.81-1.71.7-.25,1.46.11,1.71.81,1.36,3.81,5.38,6.94,10.43,5.54.7-.2,1.45.22,1.64.93.2.71-.22,1.44-.93,1.64-1.11.31-2.18.45-3.2.45Z" style="fill:#f2937c; stroke-width:0px;"/><path d="M310.67,388.71l25.15,9.05s3.53,29.9,19.78,59.47c5.65,25.95-11.53,29.77-15.43,105.95-1.15,22.46-89.11,15.23-103.46,3.86-4.83-3.83-15.38-72.47-16.88-77.78-3.17-11.26,7.62-13.17,13.72-35.09,3.74-13.44,4.5-35.08-13.45-52.73l40.91-13.42s4.52,19.21,31.09,19.21c0,0,28.01,0,18.58-18.51Z" style="fill:#122c50; stroke-width:0px;"/><path d="M187.83,438.63l-24.78,106.44s-4.78,24.82,4,26.72c0,0,23.47,11.76,37.07-32.8l29.42-84.83s17.38-57.89-25.29-45.11c0,0-14.97,5.62-20.43,29.57Z" style="fill:#f7b6a0; stroke-width:0px;"/><path d="M332.85,329.24s-30.5-6.47-53.99,3.73c0,0-4.43,15.81,2.03,28.59,0,0,25.04,21.65,41.69-3.14,0,0,9.85-15.07,10.26-29.18Z" style="fill:#dbf0fd; stroke-width:0px;"/><path d="M270.01,320.05l10.01,14.64,1.15-1.94-8.99-13.63-.03,1.69-2.15-.77Z" style="fill:#dbf0fd; stroke-width:0px;"/><path d="M267,337.93l15.38,21.92-1.49,1.7-13.98-20.18s.06-2.53.09-3.44Z" style="fill:#dbf0fd; stroke-width:0px;"/><path d="M303.88,340.17c-3.85-.11-7.76-.52-11.71-1.21l-.55-.78.77-.54c11.27,1.98,22.21,1.56,32.51-1.22l.82.47-.47.82c-6.87,1.85-14.03,2.68-21.38,2.46Z" style="fill:#a4dbf8; stroke-width:0px;"/><path d="M305.75,348.67c-3.01-.09-5.64-.51-8.34-1.12l-.5-.8.79-.51c5.44,1.23,10.56,1.67,19.29.1l.77.53-.54.78c-4.62.82-8.26,1.1-11.46,1.01Z" style="fill:#a4dbf8; stroke-width:0px;"/><path d="M306.18,356.77c-4.75-.14-9.46-1.06-13.5-2.74l-.37-.86.87-.36c8.17,3.39,19.22,3.55,27.48.39l.86.38-.38.86c-4.48,1.71-9.74,2.48-14.96,2.33Z" style="fill:#a4dbf8; stroke-width:0px;"/><path d="M210.85,738.78c-11.4-11.53-12.15-49.02-5-52.1,4.96-2.13,23.58,6.84,31.63,12.7-.14,3.37-.21,4.98-15.17,1.84.26,12.86,11.49,23.43,10.94,35.4-4.95.54-12.02-12.15-13.86-16.95.55,4.28,11.03,14.92,10.1,22.13-4.1.2-16.6-14.53-14.9-20.71-2.01,4.78,8.59,21.46,8.59,21.46-5.37,2.9-14.85-15.91-14.78-19.45-1.64,2.94,6.84,18.33,2.46,15.69Z" style="fill:#f7b6a0; stroke-width:0px;"/><path d="M213.05,687.31l-11.02,6.48c-33.71-65.53-43.28-122-43.28-122,.21-18.21,6.55-36.38,6.55-36.38,22.62-8.66,34.1,8.36,34.1,8.36,0,0-10.25,60.14,13.65,143.54Z" style="fill:#f7b6a0; stroke-width:0px;"/><path d="M236.5,395.95l13.79-4.49,11.74,53.41h63.65l-3.17-51.63,13.33,4.52s3.53,29.9,19.78,59.47c5.54,25.42-11.53,29.78-15.43,105.95-1.15,22.46-102.3,19.55-109.57,2.74-3.23-7.48-16.06-67.15-17.56-72.45,0,0,30.45-16.77,28.83-66.11l-5.38-31.4Z" style="fill:#0086cd; stroke-width:0px;"/><polygon points="349.43 497.79 213.05 497.79 213.05 559.63 207.68 645.79 363.27 645.79 349.43 563.05 349.43 497.79" style="fill:#0086cd; stroke-width:0px;"/><path d="M213.05,526.02l28.02-82.45s6.1-34.76-12.96-43.99c0,0-32.04,3.97-41.2,31.31l-25.15,65.19s6.12,28.22,51.29,29.94Z" style="fill:#122c50; stroke-width:0px;"/><path d="M283.33,628.22c-18.64,0-52.24-.11-65.08-8.19-.62-.4-.81-1.22-.42-1.84.39-.62,1.21-.8,1.84-.42,12.37,7.79,46.31,7.83,64.44,7.78h.76c21.93,0,52.76-2.86,67.43-10.92.64-.35,1.45-.12,1.81.53.35.64.12,1.45-.52,1.8-19.49,10.71-60.66,11.26-68.71,11.26h-1.54Z" style="fill:#15182c; stroke-width:0px;"/><path d="M327.96,534.88h-71.38c-.74,0-1.33-.6-1.33-1.33v-71.52c0-.74.6-1.33,1.33-1.33h71.38c.74,0,1.33.59,1.33,1.33v71.52c0,.73-.59,1.33-1.33,1.33ZM257.91,532.22h68.72v-68.86h-68.72v68.86Z" style="fill:#171a2f; stroke-width:0px;"/><path d="M316.14,472.5h-49.45c-.74,0-1.33-.59-1.33-1.33s.59-1.33,1.33-1.33h49.45c.74,0,1.33.59,1.33,1.33s-.59,1.33-1.33,1.33Z" style="fill:#171a2f; stroke-width:0px;"/><path d="M276.23,237.41c17.23-3.44,36.31,2.85,48.19,15.77,4.51,4.91,9.52,10.47,14.55,28.91-6.83,21.42-102.81,5.89-102.85,5.89,0,0-.46-40.55,40.12-50.56Z" style="fill:#122c50; stroke-width:0px;"/><path d="M277.53,235.27c-4.94,5.22,4.99,5.03,7.9,3.75,8.01-3.5-3.74-8.15-7.9-3.75Z" style="fill:#0086cd; stroke-width:0px;"/><path d="M242.4,288.68c1.83-.01,34.72,27.95,116.2,15.67,0,0,32.36-5.03-21.49-22.51l-94.72,6.84Z" style="fill:#0086cd; stroke-width:0px;"/><path d="M245.32,731.06c.76,3.35-3.65,2.34-5.93-.3,2.77,4.5-.42,11-5.49,5.77-1.26,3.98-6.91,8.16-10.74,6.02-3.99,5.9-13.15-.22-15.49-4.19-7.84-13.3-7.85-18.88-10.73-30.61-4.14-16.87-13.37-42.52-16.26-54.8,1.89-6.02,24.61-7.53,24.8-5.65,1.08,10.47,4.72,27.5,9.22,38.31,0,0,17.46,6.49,30.28,13.92,0,0,2.12,5.3-15.92,3.22,0,0,14.33,19.86,16.23,28.31Z" style="fill:#ffd940; stroke-width:0px;"/><path d="M154.71,820.46c-30.11,3.09-32.62,5.6-35.7,35.71-3.09-30.11-5.6-32.62-35.71-35.71,30.11-3.09,32.61-5.6,35.71-35.71,3.09,30.11,5.6,32.61,35.7,35.71Z" style="fill:#fff; stroke-width:0px;"/><path d="M781.36,540.69c-30.11,3.09-32.62,5.6-35.7,35.71-3.09-30.11-5.6-32.61-35.71-35.71,30.11-3.09,32.62-5.6,35.71-35.71,3.09,30.11,5.6,32.61,35.7,35.71Z" style="fill:#fff; stroke-width:0px;"/><path d="M1068.31,145.39c-30.11,3.09-32.62,5.6-35.7,35.71-3.09-30.11-5.6-32.62-35.71-35.71,30.11-3.09,32.61-5.6,35.71-35.71,3.09,30.11,5.6,32.62,35.7,35.71Z" style="fill:#fff; stroke-width:0px;"/><path d="M1380.89,631.02c-30.11,3.09-32.62,5.6-35.7,35.71-3.1-30.11-5.6-32.62-35.71-35.71,30.1-3.09,32.61-5.6,35.71-35.71,3.09,30.11,5.6,32.62,35.7,35.71Z" style="fill:#fff; stroke-width:0px;"/><path d="M1002.19,778.38c-30.11,3.09-32.62,5.6-35.7,35.71-3.09-30.11-5.6-32.61-35.71-35.71,30.11-3.09,32.62-5.6,35.71-35.71,3.09,30.11,5.6,32.61,35.7,35.71Z" style="fill:#fff; stroke-width:0px;"/></svg>