<?xml version="1.0" encoding="UTF-8"?><svg id="Capa_1" xmlns="http://www.w3.org/2000/svg" viewBox="0 0 12.32 10"><defs><style>.cls-1{fill:#e89776;}.cls-1,.cls-2,.cls-3,.cls-4,.cls-5,.cls-6,.cls-7,.cls-8,.cls-9,.cls-10,.cls-11,.cls-12,.cls-13,.cls-14,.cls-15,.cls-16,.cls-17,.cls-18,.cls-19,.cls-20,.cls-21,.cls-22,.cls-23,.cls-24,.cls-25,.cls-26,.cls-27,.cls-28,.cls-29,.cls-30,.cls-31,.cls-32,.cls-33,.cls-34,.cls-35,.cls-36,.cls-37,.cls-38,.cls-39,.cls-40,.cls-41,.cls-42,.cls-43,.cls-44,.cls-45,.cls-46,.cls-47,.cls-48,.cls-49,.cls-50{stroke-width:0px;}.cls-2{fill:#ffe193;}.cls-3{fill:#ffd940;}.cls-4{fill:#b2e0f9;}.cls-5{fill:#aaddf9;}.cls-6{fill:#78532a;}.cls-7{fill:#fcc240;}.cls-8{fill:#e95c6d;}.cls-9{fill:#fcc03f;}.cls-10{fill:#171d30;}.cls-11{fill:#f9b674;}.cls-12{fill:#3c4867;}.cls-13{fill:#ec69a3;}.cls-14{fill:#452425;}.cls-15{fill:#15182c;}.cls-16{fill:#84b6db;}.cls-17{fill:#ef85b4;}.cls-18{fill:#94b7cc;}.cls-19{fill:#0086cd;}.cls-20{fill:#71cbf4;}.cls-21{fill:#dbf0fd;}.cls-22{fill:#d0896b;}.cls-23{fill:#fff;}.cls-24{fill:#a4dbf8;}.cls-25{fill:#fdc740;}.cls-26{fill:#d8876d;}.cls-27{fill:#6594ac;}.cls-28{fill:#abcbed;}.cls-29{fill:#ea5297;}.cls-30{fill:#122c50;}.cls-31{fill:#21263d;}.cls-32{fill:#f7b6a0;}.cls-33{fill:#4075ba;}.cls-34{fill:#a7dcf8;}.cls-35{fill:#cf7e67;}.cls-36{fill:#0069ae;}.cls-37{fill:#f2937c;}.cls-38{fill:#664622;}.cls-39{fill:#050607;}.cls-40{fill:#ec7577;}.cls-41{fill:#c9e8fb;}.cls-42{fill:#fec800;}.cls-43{fill:#171a2f;}.cls-44{fill:#e5a681;}.cls-45{fill:#fab53f;}.cls-46{fill:#323a65;}.cls-47{fill:#ffd340;}.cls-48{fill:#dff2fd;}.cls-49{fill:#3e497e;}.cls-50{fill:#f9b13e;}</style></defs><path class="cls-4" d="M10.32,1.07c.47.67.03,1.38.46,2.05.17.27.41.42.62.65.25.27.43.64.52,1,.11.42.03.82-.36,1.08-.26.17-.55.22-.65.54-.2.62.34,1.19-.09,1.83-.48.7-1.54.37-2.34.38-1.27.02-2.54.01-3.81-.02-1.01-.03-2.24.07-3.2-.28-.43-.16-.88-.51-1.09-.9-.26-.48-.2-1.26.14-1.71.5-.67,1.76-.19,2.2-.97.31-.54-.27-.85-.27-1.38.02-1.17,1.39-1.24,2.31-1.32.62-.05,1.02-.3,1.33-.78C6.55.53,7.04-.06,8.01,0c.86.06,1.82.36,2.31,1.06Z"/><ellipse class="cls-34" cx="5.96" cy="9.6" rx="5.96" ry=".4"/><rect class="cls-44" x="4.1" y="2.63" width=".1" height="5.49" transform="translate(-.95 .89) rotate(-10.98)"/><rect class="cls-49" x="3.59" y="2.67" width=".14" height=".35" transform="translate(-.47 .75) rotate(-10.96)"/><path class="cls-49" d="M3.13,2.77l1-.19c.08-.01.12-.1.11-.18l-1.28.25c.02.09.09.14.17.13h0Z"/><polygon class="cls-49" points="4.72 8.06 4.63 8.08 4.57 7.77 4.66 7.75 4.72 8.06"/><path class="cls-49" d="M4.66,7.99s-.04.03-.04.06l.03.14s.03.04.06.04c.03,0,.04-.03.04-.06l-.03-.14s-.03-.04-.06-.04h0ZM4.71,8.17s0,.02-.01.02c0,0-.02,0-.02-.01v-.05s0-.02,0-.02c0,0,.02,0,.02.01v.05s0,0,0,0Z"/><rect class="cls-18" x="2.94" y="2.46" width="1.3" height=".06" transform="translate(-.41 .73) rotate(-10.96)"/><rect class="cls-44" x="4.76" y="2.79" width=".1" height="5.49"/><rect class="cls-49" x="4.74" y="2.79" width=".14" height=".35"/><rect class="cls-49" x="4.76" y="7.97" width=".1" height=".31"/><path class="cls-49" d="M4.81,8.2s-.05.02-.05.05v.15s.02.05.05.05.05-.02.05-.05v-.15s-.02-.05-.05-.05ZM4.82,8.39s0,.02-.02.02-.02,0-.02-.02v-.05s0-.02.02-.02.02,0,.02.02v.05Z"/><path class="cls-18" d="M5.36,1.67l-.06-.07h-.07s-.07-.06-.07-.06l-.07.02-.06-.04-.07.02-.08-.03-.08.04-.08-.04-.08.03-.07-.02-.06.04-.07-.02-.07.07h-.07s-.06.06-.06.06h-.08s.25.86.25.86c.11.2.31.26.31.26h.14s.2-.06.31-.26l.25-.85h-.08s0,0,0,0Z"/><path class="cls-27" d="M5.1,2.55s-.05.03-.08.04c0,0,0,0,0,0,0-.03.02-.07.02-.1-.01,0-.02.02-.03.03h0s0,0-.01,0c-.01.02-.03.04-.05.06h-.01s-.02-.08-.03-.12c-.01.06-.04.1-.09.14h0s-.04-.09-.05-.15c0,.04-.03.07-.04.1h0s-.01,0-.02,0c0,.01,0,.03,0,.04,0,0,0,0,0,0-.04-.04-.07-.09-.11-.14,0,.06,0,.11-.01.17h0s-.05-.08-.09-.11c0,0-.01-.02,0,0,0,.01,0,.02,0,.03,0,.01,0,.02,0,.04.11.17.29.22.29.22h.14s.11-.03.21-.13c0-.04.02-.07.02-.11h0Z"/><polygon class="cls-27" points="4.22 1.67 4.25 1.67 4.27 1.64 4.46 2.43 4.22 1.67"/><polygon class="cls-27" points="4.36 1.6 4.39 1.6 4.43 1.56 4.54 2.21 4.36 1.6"/><path class="cls-27" d="M4.48,1.54h.04s.03-.01.04-.02.12.96.12.96l-.2-.94Z"/><polygon class="cls-27" points="4.63 1.53 4.65 1.53 4.7 1.52 4.74 2.29 4.63 1.53"/><polygon class="cls-27" points="4.77 1.53 4.81 1.54 4.85 1.52 4.82 2.51 4.77 1.53"/><polygon class="cls-27" points="5.39 1.67 5.36 1.67 5.34 1.64 5.15 2.43 5.39 1.67"/><polygon class="cls-27" points="5.26 1.6 5.22 1.6 5.19 1.56 5.08 2.21 5.26 1.6"/><path class="cls-27" d="M5.13,1.54h-.04s-.03-.01-.04-.02c0,0-.12.96-.12.96l.2-.94h0Z"/><polygon class="cls-27" points="4.99 1.53 4.96 1.53 4.92 1.52 4.88 2.29 4.99 1.53"/><rect class="cls-44" x="2.51" y="5.34" width="5.49" height=".1" transform="translate(-1.05 9.5) rotate(-78.8)"/><rect class="cls-49" x="5.58" y="2.8" width=".35" height=".14" transform="translate(1.83 7.95) rotate(-78.8)"/><path class="cls-49" d="M5.18,2.48c0,.06.05.11.11.12l1,.2c.06.01.11-.02.15-.07l-1.25-.25h0Z"/><rect class="cls-49" x="4.6" y="7.88" width=".31" height=".1" transform="translate(-3.95 11.05) rotate(-78.8)"/><path class="cls-49" d="M4.74,8.01s-.05.01-.06.04l-.03.14s.01.05.04.06.05-.01.06-.04l.03-.14s-.01-.05-.04-.06h0ZM4.72,8.19s-.01.02-.02.01c0,0-.02-.01-.01-.02v-.05s.02-.02.03-.01c0,0,.02.01.01.02v.05s0,0,0,0Z"/><polygon class="cls-40" points="5.18 2.48 6.43 2.73 6.56 2.4 5.17 2.13 5.18 2.48"/><polygon class="cls-8" points="5.18 2.4 5.18 2.48 6.43 2.73 6.46 2.66 5.18 2.4"/><polygon class="cls-8" points="5.25 2.14 5.3 2.15 5.24 2.43 5.25 2.14"/><polygon class="cls-8" points="6.5 2.39 6.45 2.38 6.39 2.65 6.5 2.39"/><polygon class="cls-8" points="5.56 2.2 5.61 2.21 5.53 2.48 5.56 2.2"/><polygon class="cls-8" points="5.34 2.16 5.4 2.17 5.32 2.48 5.34 2.16"/><polygon class="cls-8" points="6.39 2.37 6.34 2.36 6.3 2.67 6.39 2.37"/><polygon class="cls-8" points="5.95 2.28 5.89 2.27 5.87 2.53 5.95 2.28"/><polygon class="cls-8" points="5.46 2.18 5.52 2.2 5.45 2.4 5.46 2.18"/><polygon class="cls-8" points="5.8 2.25 5.85 2.26 5.79 2.42 5.8 2.25"/><polygon class="cls-8" points="5.69 2.23 5.75 2.24 5.66 2.51 5.69 2.23"/><polygon class="cls-8" points="6.3 2.35 6.23 2.34 6.22 2.55 6.3 2.35"/><polygon class="cls-8" points="6.17 2.32 6.12 2.31 6.08 2.63 6.17 2.32"/><polygon class="cls-8" points="6.08 2.31 6.02 2.29 6 2.51 6.08 2.31"/><path class="cls-50" d="M5.3,8.67c.13,0,.13-.15.13-.15l.12-2.66h-1.65l.12,2.66s0,.15.13.15h1.15Z"/><path class="cls-25" d="M4.88,8.67c.13,0,.13-.15.13-.15l.12-2.66h-1.65l.12,2.66s0,.15.13.15h1.15Z"/><polygon class="cls-45" points="5.11 6.04 5.13 5.85 3.48 5.85 3.5 6.04 5.11 6.04"/><path class="cls-7" d="M5.71,5.93s-.03.07-.07.07h-1.67s-.07-.03-.07-.07.03-.07.07-.07h1.67s.07.03.07.07Z"/><path class="cls-47" d="M5.2,5.93s-.03.07-.07.07h-1.67s-.07-.03-.07-.07.03-.07.07-.07h1.67s.07.03.07.07Z"/><rect class="cls-16" x="3.29" y="5.8" width="2.53" height=".24"/><path class="cls-10" d="M6.19,9.4c0,.16-.13.28-.28.28s-.28-.13-.28-.28.13-.28.28-.28.28.13.28.28Z"/><path class="cls-12" d="M8.57,9.48c0,.11-.09.2-.2.2s-.2-.09-.2-.2.09-.2.2-.2.2.09.2.2Z"/><path class="cls-10" d="M8.46,9.48c0,.05-.04.1-.1.1s-.1-.04-.1-.1.04-.1.1-.1.1.04.1.1Z"/><path class="cls-16" d="M8.4,9.45l-.03-.32h-.26l.22.34s.02.04.06.02c0,0,.02,0,.01-.04h0Z"/><rect class="cls-28" x="4.86" y="5.8" width=".2" height="3.19"/><rect class="cls-28" x="5.61" y="5.8" width=".2" height="3.19"/><path class="cls-28" d="M8.34,9.18c.05,0,.09-.04.09-.09s-.04-.09-.09-.09h-3.49v.19h3.49Z"/><path class="cls-16" d="M8.34,9.18c.05,0,.09-.04.09-.09s-.04-.09-.09-.09h-3.49v.19h3.49Z"/><path class="cls-28" d="M7.31,9.18c.05,0,.09-.04.09-.09s-.04-.09-.09-.09h-2.45v.19h2.45Z"/><path class="cls-50" d="M7.63,9c.13,0,.13-.15.13-.15l.12-1.3h-1.65l.12,1.3s0,.15.13.15h1.15Z"/><path class="cls-25" d="M7.22,9c.13,0,.13-.15.13-.15l.12-1.3h-1.65l.12,1.3s0,.15.13.15h1.15,0Z"/><polygon class="cls-45" points="7.44 7.73 7.47 7.54 5.82 7.54 5.84 7.73 7.44 7.73"/><path class="cls-7" d="M8.05,7.62s-.03.07-.07.07h-1.67s-.07-.03-.07-.07.03-.07.07-.07h1.67s.07.03.07.07Z"/><path class="cls-47" d="M7.54,7.62s-.03.07-.07.07h-1.67s-.07-.03-.07-.07.03-.07.07-.07h1.67s.07.03.07.07Z"/><path class="cls-47" d="M6.74,7.51c0,.06-.05.11-.11.11s-.11-.05-.11-.11.05-.11.11-.11.11.05.11.11Z"/><path class="cls-31" d="M7.53,8.28c-.12,0-.19-.07-.19-.07l-.71-.72h0s.01-.01.01-.01l.71.72s.07.07.19.07h.51s.03,0,.04-.03c0-.02,0-.05-.03-.08l-.22-.3s0-.01,0-.01c0,0,.01,0,.01,0l.22.3s.04.08.03.1c-.01.03-.05.04-.06.04h-.52s0,0,0,0Z"/><path class="cls-12" d="M7.49,9.48c0,.11-.09.2-.2.2s-.2-.09-.2-.2.09-.2.2-.2.2.09.2.2Z"/><path class="cls-10" d="M7.39,9.48c0,.05-.04.1-.1.1s-.1-.04-.1-.1.04-.1.1-.1.1.04.1.1Z"/><path class="cls-28" d="M7.32,9.45l-.03-.32h-.26l.22.34s.02.04.06.02c0,0,.02,0,.01-.04h0Z"/><path class="cls-41" d="M7.3,9.45s-.01.02-.02.02-.02-.01-.02-.02.01-.02.02-.02.02.01.02.02Z"/><path class="cls-12" d="M5.32,9.4c0,.16-.13.28-.28.28s-.28-.13-.28-.28.13-.28.28-.28.28.13.28.28Z"/><path class="cls-28" d="M4.75,9.4c0-.16.13-.28.28-.28s.28.13.28.28c0,0,.13.02.12-.12,0,0-.03-.32-.39-.32,0,0-.34-.02-.42.32,0,0-.03.12.12.12h0Z"/><path class="cls-10" d="M5.17,9.4c0,.07-.06.14-.14.14s-.14-.06-.14-.14.06-.14.14-.14.14.06.14.14Z"/><polygon class="cls-2" points="6.01 8.8 5.28 8.8 5.25 9 6.05 9 6.01 8.8"/><polygon class="cls-11" points="6.02 8.84 6.01 8.8 5.28 8.8 5.28 8.84 6.02 8.84"/><polygon class="cls-11" points="6.01 9 5.98 9 5.98 8.84 6.01 9"/><polygon class="cls-11" points="5.28 9 5.32 9 5.32 8.84 5.28 9"/><polygon class="cls-11" points="5.83 9 5.8 9 5.82 8.84 5.83 9"/><polygon class="cls-11" points="5.96 9 5.92 9 5.93 8.82 5.96 9"/><polygon class="cls-11" points="5.35 9 5.38 9 5.37 8.82 5.35 9"/><polygon class="cls-11" points="5.6 9 5.64 9 5.62 8.85 5.6 9"/><polygon class="cls-11" points="5.89 9 5.85 9 5.87 8.87 5.89 9"/><polygon class="cls-11" points="5.69 9 5.66 9 5.68 8.9 5.69 9"/><polygon class="cls-11" points="5.76 9 5.72 9 5.74 8.84 5.76 9"/><polygon class="cls-11" points="5.4 9 5.44 9 5.42 8.87 5.4 9"/><polygon class="cls-11" points="5.47 9 5.51 9 5.5 8.82 5.47 9"/><polygon class="cls-11" points="5.53 9 5.57 9 5.55 8.87 5.53 9"/><path class="cls-49" d="M6.01,8.8v-.1s-.03-.06-.06-.06h-.61s-.06.03-.06.06v.1h.73Z"/><path class="cls-49" d="M5.56,8.69s-.02.06-.06.06-.06-.02-.06-.06v-.17s.02-.06.06-.06.06.02.06.06v.17Z"/><path class="cls-49" d="M5.97,8.58h-.46s-.06-.02-.06-.06.02-.06.06-.06h.37s.09,0,.09.11h0Z"/><rect class="cls-46" x="5.29" y="8.72" width=".73" height=".08"/><path class="cls-33" d="M3.85,6.89c.01.11.03.23.03.34,0,.11-.03.23-.03.34,0,.05.02.1.04.04.01-.03.02-.11.03-.14,0,.05-.03.3.04.28.02-.04.02-.08.04-.26,0,.03,0,.29.03.31.04.02.03-.27.03-.3,0,.07.04.22.06.24.07.02.04-.21.04-.21-.02-.22.04-.11.09-.08.04.02.08,0,.04-.05-.02-.03-.05-.06-.07-.08-.02-.03-.06-.07-.07-.1-.02-.06-.02-.13,0-.2.01-.06.03-.12.02-.12,0,0-.16-.07-.32,0h0Z"/><path class="cls-36" d="M4.12,7.27c0,.11,0,.17.01.25,0,.03,0,.06,0,.09,0,.03,0,.05,0,.08,0,.02,0,.04-.02.05.06,0,.03-.21.03-.21-.02-.22.04-.11.09-.08.02.01.03.01.04,0-.06-.04-.12-.12-.16-.18Z"/><path class="cls-36" d="M3.86,7.57s.01-.09.02-.13c0-.04,0-.07.02-.11,0-.03.01-.06.03-.09.02-.03.05-.04.08-.05-.03-.06-.04-.13-.03-.2,0-.05,0-.09.02-.13-.05,0-.1,0-.15.03.01.11.03.23.03.34,0,.11-.03.23-.03.34,0,.03,0,.07.02.07-.01-.02-.01-.05-.01-.07h0Z"/><path class="cls-33" d="M4.63,6.67c-.01.11-.03.23-.03.34,0,.11.03.23.03.34,0,.05-.02.1-.04.04-.01-.03-.02-.1-.03-.14,0,.05.03.3-.04.28-.02-.04-.02-.08-.04-.26,0,.03,0,.29-.03.31-.04.02-.03-.27-.03-.3,0,.07-.04.22-.06.24-.07.02-.04-.21-.04-.21.02-.22-.04-.11-.09-.08-.04.02-.08,0-.04-.05.02-.03.05-.06.07-.08.02-.03.06-.07.07-.1.02-.06.02-.13,0-.2-.01-.06-.03-.12-.02-.12,0,0,.16-.07.32,0h0Z"/><path class="cls-36" d="M4.35,7.05c0,.11,0,.17-.01.25,0,.03,0,.06,0,.09,0,.03,0,.05,0,.08,0,.02,0,.04.02.05-.06,0-.03-.21-.03-.21.02-.22-.04-.11-.09-.08-.02.01-.03.01-.04,0,.06-.04.12-.12.16-.18Z"/><path class="cls-36" d="M4.62,7.35s-.01-.09-.02-.13c0-.04,0-.07-.02-.11,0-.03-.01-.06-.03-.09-.02-.03-.05-.04-.08-.05.03-.06.04-.13.03-.2,0-.05,0-.09-.02-.13.05,0,.1,0,.15.03-.01.11-.03.23-.03.34,0,.11.03.23.03.34,0,.03,0,.07-.02.07.01-.02.01-.05.01-.07h0Z"/><rect class="cls-28" x="3.57" y="6.95" width="2.24" height=".13"/><path class="cls-13" d="M7.87,7.92s.02.08-.03.12h.02s.07-.05.06-.12h-.05s0,0,0,0Z"/><path class="cls-48" d="M8.14,7.79l.08.08s-.1.08-.1.13v.04h-.18v-.07s0-.02-.02-.03l-.17-.04v-.05l.39-.06h0Z"/><polygon class="cls-13" points="7.82 7.83 7.75 7.85 7.75 7.9 7.82 7.92 7.82 7.83"/><rect class="cls-5" x="7.93" y="8.03" width=".21" height=".08"/><polygon class="cls-20" points="7.95 8.1 7.95 8.1 7.95 8.1 7.95 8.05 7.95 8.05 7.95 8.05 7.95 8.1"/><polygon class="cls-20" points="7.98 8.1 7.97 8.1 7.97 8.1 7.97 8.05 7.97 8.05 7.98 8.05 7.98 8.1"/><polygon class="cls-20" points="8 8.1 8 8.1 7.99 8.1 7.99 8.05 8 8.05 8 8.05 8 8.1"/><polygon class="cls-20" points="8.02 8.1 8.02 8.1 8.02 8.1 8.02 8.05 8.02 8.05 8.02 8.05 8.02 8.1"/><polygon class="cls-20" points="8.04 8.1 8.04 8.1 8.04 8.1 8.04 8.05 8.04 8.05 8.04 8.05 8.04 8.1"/><polygon class="cls-20" points="8.07 8.1 8.07 8.1 8.06 8.1 8.06 8.05 8.07 8.05 8.07 8.05 8.07 8.1"/><polygon class="cls-20" points="8.09 8.1 8.09 8.1 8.09 8.1 8.09 8.05 8.09 8.05 8.09 8.05 8.09 8.1"/><polygon class="cls-20" points="8.11 8.1 8.11 8.1 8.11 8.1 8.11 8.05 8.11 8.05 8.11 8.05 8.11 8.1"/><path class="cls-13" d="M7.95,8.11h.16c.05.1.13.18.13.18.04.05,0,.11,0,.11-.03.14.01.47.01.47.03.05.02.09.02.09,0,.03-.04.03-.04.03h-.41s-.05-.04-.05-.04c0-.04.03-.08.03-.08.09-.17-.01-.41-.01-.41-.02-.07.03-.11.03-.11l.07-.07s.04-.03.04-.06v-.1s0,0,0,0Z"/><path class="cls-17" d="M8.15,8.26s.03.06.04.09c0,.04,0,.08,0,.11,0,.05-.01.11,0,.16,0,.05.01.1.03.15.01.03.03.06.06.09h0s-.05-.33-.01-.46c0,0,.03-.06,0-.11,0,0-.08-.09-.13-.18h-.07c.03.06.07.1.1.15h0Z"/><path class="cls-29" d="M8.26,8.87s-.01.03-.03.04c-.06.06-.2.05-.28.03-.03,0-.05-.02-.06-.05,0-.03,0-.07,0-.1,0-.03.02-.07.02-.1.01-.09-.04-.17-.05-.26,0-.03,0-.06.03-.08.02-.02.05-.04.07-.06.01-.01.03-.02.03-.04,0-.02.01-.04.02-.06,0-.03,0-.05,0-.08h-.08v.1s-.05.06-.05.06l-.07.07s-.05.04-.03.11c0,0,.11.24.01.41,0,0-.03.04-.03.08,0,0,0,.04.05.04h.41s.04,0,.04-.03c0,0,.01-.04-.02-.09h0Z"/><path class="cls-42" d="M8.22,8.8s-.03-.19,0-.3c0,0-.14-.09-.35,0,0,0,.07.14.02.29,0,0,.14.07.34,0Z"/><path class="cls-1" d="M8.7,4.63c-.04.45-.02.71.08,1.36l.11-.03c0-.1.15-1.19.19-1.38,0,0-.33-.24-.38.04h0Z"/><path class="cls-22" d="M8.9,6.11v.1s.05.13.05.13c0,0-.02.02-.05-.02l-.06-.11v-.11s.06,0,.06,0h0Z"/><path class="cls-22" d="M8.87,6.14l-.02.1.06.14s-.03.02-.05-.02l-.05-.11v-.11s.06.01.06.01h0Z"/><path class="cls-1" d="M8.76,6.17v-.12s.03-.15.03-.15l.09-.02.04.15v.08s.02.11.02.11v.04s-.02.01-.05-.05l-.03-.1-.04.08.04.14s0,.08-.03.05l-.08-.2v-.02s0,0,0,0Z"/><path class="cls-9" d="M8.91,6.21l.07.18s-.03.03-.05.02c0,0,.03.04-.04.03l-.08-.2s.05-.1.1-.03h0Z"/><path class="cls-3" d="M8.98,5.57l-.03.36v.17s.03.22.03.22c0,0-.08,0-.1-.11l-.02.04s.09.14.02.21c0,0-.02,0-.04-.03l-.08-.19.02-.29-.09-.38s.18-.05.29,0h0Z"/><path class="cls-1" d="M8.7,4.64c.17.07.29.02.29.02.09-.18.46-1.06.46-1.18.01-.37-.36-.16-.37-.14,0,0-.33.69-.38,1.3Z"/><path class="cls-30" d="M9.56,3.45l-.17.98c-.15-.05-.49-.09-.64-.17.14-.48.25-.82.25-.82,0,0,.09-.23.34-.22,0,0,.22.03.22.22h0Z"/><path class="cls-31" d="M9.72,5.7c.06.22.26.36.48.36,0,0,.01,0,.02,0,0,0,.01,0,.01-.01,0,0,0-.01-.01-.01,0,0-.01,0-.02,0-.21,0-.4-.14-.46-.35,0,0,0-.01-.02,0,0,0-.01,0,0,.02h0Z"/><path class="cls-39" d="M9.56,9.62h-.74c0-.09.08-.11.08-.11l.21-.06.05-.03.08-.05v-.18s.32,0,.32,0l-.02.22.02.22"/><path class="cls-39" d="M10.86,9.45l-.35.23h-.35c-.02-.08.04-.12.04-.12l.18-.07.04-.04.06-.13-.06-.17.31-.1.05.22.09.2"/><path class="cls-19" d="M10.8,9.24c-.13-1.12-.53-2.53-.53-2.53,0,0-.52.09-.55.46l.7,2.17s.24.05.37-.09h0Z"/><path class="cls-19" d="M9.05,7.33s.23.24.61-.29c0,0,.07-.87.18-1.5l-.81-.02-.02.5s.01.68.04,1.3h0Z"/><path class="cls-19" d="M10.33,7.11c-.35.37-.61.08-.61.08-.08-.61-.25-1.67-.25-1.67,0,0,.89-.14.98.42,0,0-.08.55-.12,1.17h0Z"/><path class="cls-19" d="M9.06,7.44l.16,1.9.35.02s.09-2.41.08-2.41-.68-.31-.6.49h0Z"/><path class="cls-30" d="M10.32,5.11h-1.23c-.05.2-.08.32-.08.92h1.37c.03-.11,0-.4,0-.43l-.06-.48h0Z"/><path class="cls-14" d="M10.06,2.57s0-.03.01-.04c.06-.16.09-.45-.14-.51-.23-.06-.17.33-.17.44,0,.12-.02.16.03.27.02.04.04.08.09.07.05,0,.16-.16.19-.23h0Z"/><rect class="cls-1" x="9.5" y="2.73" width=".48" height=".39" transform="translate(6.39 12.52) rotate(-87.5)"/><path class="cls-35" d="M9.81,2.95c.04-.08.07-.16.07-.26h-.32s-.02.4-.02.4c.1-.01.23-.05.27-.14h0Z"/><path class="cls-1" d="M10.14,3.21l-.22-.11h-.38l-.17.11s-.03.24.21.31c0,0,.51.09.55-.32h0Z"/><path class="cls-30" d="M9.02,5.86s.44.26,1.42-.02l-.07-1.45.12-.83c.04-.17-.11-.26-.11-.26l-.4-.16c-.29.29-.49,0-.49,0l-.32.11s-.16.09-.17.3l.04.9-.03,1.41h0Z"/><path class="cls-14" d="M9.57,2.13c.08-.02.06.05.03.12l-.11.05c-.1.04-.04.1-.05.18,0,.03-.02.07-.03.1-.02-.03-.06-.2-.06-.24,0,0-.03-.17.09-.21,0,0,.08-.02.13,0h0Z"/><path class="cls-1" d="M9.94,2.69c-.03.09-.09.19-.17.24-.07.05-.15.08-.23.03-.06-.04-.11-.11-.13-.18-.06-.16-.04-.39.05-.53.1-.15.33-.14.43.01.08.13.1.29.05.43h0Z"/><path class="cls-26" d="M9.78,2.62s-.02.02-.05.03c-.03,0-.05,0-.05-.02,0-.01.02-.02.05-.02.03,0,.05,0,.05.02h0Z"/><path class="cls-26" d="M9.52,2.62s-.02.02-.05.03c-.03,0-.05,0-.05-.02s.02-.02.05-.02c.03,0,.05,0,.05.02h0Z"/><path class="cls-35" d="M9.61,2.66s-.02,0-.03,0-.02,0-.02,0h0s0,0,0,0h0s0,0,0,0l.03-.09s0-.01,0-.02c0,0-.01,0-.02,0l-.03.09h.01s-.01,0-.01,0c0,0,0,.01,0,.02s0,.01,0,.02c.01.01.03.02.05.02.01,0,.02,0,.03,0,0,0,0,0,0-.02s0,0-.02,0h0Z"/><path class="cls-14" d="M9.45,2.48s.02-.01.04-.01c.01,0,.03,0,.05.01,0,0,.02,0,.02,0,0,0,0-.02,0-.02-.02-.01-.04-.01-.06-.01-.03,0-.05,0-.06.02,0,0,0,.01,0,.02,0,0,.01,0,.02,0h0Z"/><path class="cls-14" d="M9.78,2.45s-.04-.02-.06-.02c-.02,0-.04,0-.06.02,0,0,0,.02,0,.02,0,0,.02,0,.02,0,0,0,.02-.01.04-.01.02,0,.03,0,.05.01,0,0,.02,0,.02,0s0-.02,0-.02h0Z"/><path class="cls-14" d="M9.47,1.99s.17-.05.35-.02c.04,0,.06.04.08.06.04.03.07.03.11.04.03.01.05.03.05.07,0,.04-.04.07-.05.11-.02.04.01.13.02.18,0,.02,0,.05,0,.08,0-.02-.05-.07-.08-.03-.01.02-.02.09-.03.11,0,.03-.01.02-.04.02,0-.08,0-.29-.08-.29-.02,0-.05.01-.07.02-.05.01-.12.04-.17.02-.23-.09-.2-.07-.21-.15,0,0,0-.16.12-.21h0Z"/><path class="cls-31" d="M9.48,2.5s-.02.01-.02.03c0,.02.01.03.02.03.01,0,.02-.01.02-.03,0-.02-.01-.03-.02-.03h0Z"/><path class="cls-31" d="M9.74,2.53s-.01-.03-.02-.03c-.01,0-.02.01-.02.03,0,.02.01.03.02.03.01,0,.02-.01.02-.03Z"/><path class="cls-1" d="M9.69,2.73s0,0,0,.01c0,0-.03.06-.08.06-.05,0-.09-.06-.09-.06,0,0,0-.01,0-.01,0,0,.09,0,.16,0h0Z"/><path class="cls-35" d="M9.57,2.76s.03,0,.04,0c.01,0,.02,0,.03,0,0,0,0-.01,0-.02,0,0-.01,0-.02,0,0,0-.01,0-.02,0-.01,0-.02,0-.03,0,0,0-.01,0-.02,0s0,.01,0,.02h0Z"/><path class="cls-1" d="M10.63,4.73c-.08.03-.19-.21-.21-.28-.19-.58-.36-.83-.34-.97,0-.03.18-.39.4-.09.08.1.38,1.05.35,1.24,0,0-.03.04-.2.1h0Z"/><path class="cls-30" d="M10.85,4.08l-.34-.65s-.09-.12-.17-.15c0,0-.35-.11-.31.41l.28.67s.29-.08.53-.28h0Z"/><path class="cls-1" d="M10.06,2.54s-.02.11-.06.13c-.06.03-.09-.02-.09-.07,0-.04,0-.12.05-.14.04-.02.09.04.09.08h0Z"/><path class="cls-1" d="M10.82,4.76c.46-.26.37-.2.75-.72l-.11-.08c-.51.44-.83.49-1,.58,0,0,.11.36.36.22h0Z"/><path class="cls-35" d="M9.98,2.49s-.03.05-.03.08c0,.02,0,.04.01.07,0,0,0,0,.02,0,0,0,0,0,0-.02,0-.02-.01-.04-.01-.06,0-.03,0-.05.02-.06,0,0,0-.01,0-.02,0,0-.01,0-.02,0h0Z"/><path class="cls-35" d="M10.02,2.53s-.02,0-.03,0c-.01,0-.02,0-.03,0,0,0,0,.01,0,.02,0,0,.01,0,.02,0,0,0,0,0,.02,0,0,0,.02,0,.03,0,0,0,.01,0,.02,0,0,0,0-.01,0-.02h0Z"/><polygon class="cls-19" points="10.41 6.23 10.46 5.86 10.37 3.94 10.11 3.71 10.22 3.23 10.11 3.18 9.94 3.64 9.38 3.64 9.3 3.2 9.2 3.24 9.19 3.69 9.04 3.88 9.01 5.62 9.02 6.23 10.41 6.23"/><path class="cls-43" d="M9.56,5.48s0,.08,0,.12c0,.15,0,.24,0,.3,0,.08,0,.12.01.19.04.33.09.83.16,1.09.05.21.12.4.3.96,0,0,0,0,.02,0s0,0,0-.02c-.18-.56-.25-.75-.3-.96-.06-.26-.11-.77-.16-1.09,0-.07-.01-.11-.01-.19,0-.06,0-.15,0-.3,0-.04,0-.08,0-.12,0,0,0-.01-.01-.01,0,0-.01,0-.01.01h0Z"/><polygon class="cls-43" points="10.02 4.68 10.02 4.67 9.32 4.67 9.32 3.98 10.01 3.98 10.01 4.68 10.02 4.68 10.02 4.67 10.02 4.68 10.03 4.68 10.03 3.97 10.03 3.96 10.02 3.96 9.31 3.96 9.3 3.96 9.3 3.97 9.3 4.68 9.3 4.69 9.31 4.69 10.02 4.69 10.03 4.69 10.03 4.68 10.02 4.68"/><path class="cls-43" d="M10.06,5.45c0,.12.01.25.08.37.07.11.17.16.3.18,0,0,.01,0,.01-.01,0,0,0-.01-.01-.01-.12-.02-.22-.06-.28-.17-.07-.11-.07-.23-.08-.36,0,0,0-.01-.01-.01s-.01,0-.01.01h0Z"/><path class="cls-43" d="M9.02,6.05s.01,0,.02,0c.11,0,.19-.07.24-.17.05-.1.08-.23.08-.35,0-.03,0-.06,0-.09,0,0,0-.01-.01-.01s-.01,0-.01.01c0,.03,0,.05,0,.08,0,.12-.03.24-.08.33-.05.1-.12.16-.22.16,0,0-.01,0-.02,0,0,0-.01,0-.01.01,0,0,0,.01.01.01h0Z"/><path class="cls-43" d="M9.41,4.07h.49s.01,0,.01-.01,0-.01-.01-.01h-.49s-.01,0-.01.01,0,.01.01.01"/><path class="cls-3" d="M11.89,3.56s.11.09,0,.29c-.03.06-.08.09-.14.11-.07.05-.33.42-.33.42-.16-.03-.25-.29-.25-.29l.45-.27s.02-.14.08-.2c0,0,.07-.04.2-.06h0Z"/><path class="cls-43" d="M9.13,5.1c.18.05.38.07.58.07.04,0,.08,0,.12,0,.16,0,.31,0,.46-.05,0,0,0,0,0-.02,0,0,0,0-.02,0-.14.05-.3.04-.46.05-.04,0-.08,0-.12,0-.19,0-.39-.02-.57-.07,0,0-.01,0-.02,0,0,0,0,.01,0,.02h0Z"/><path class="cls-30" d="M9.32,2.21c.04-.14.08-.19.11-.23.12-.13.25-.14.41-.12.18.03.27.23.28.39,0,0-.75.12-.8-.05h0Z"/><path class="cls-19" d="M9.78,1.85s-.04.04-.06.03c-.06-.03.03-.06.06-.03Z"/><path class="cls-19" d="M10.07,2.27s-.27.22-.91.12c0,0-.25-.04.17-.18l.74.05Z"/><rect class="cls-44" x="11.69" y="2.86" width=".09" height="4.98"/><rect class="cls-49" x="11.67" y="2.86" width=".12" height=".31"/><path class="cls-49" d="M11.27,2.86h.92c.07,0,.13-.06.13-.14h-1.18c0,.08.06.14.13.14h0Z"/><rect class="cls-49" x="11.69" y="7.55" width=".09" height=".28"/><path class="cls-49" d="M11.73,7.76s-.05.02-.05.05v.13s.02.05.05.05.05-.02.05-.05v-.13s-.02-.05-.05-.05ZM11.75,7.93s0,.02-.02.02-.02,0-.02-.02v-.05s0-.02.02-.02.02,0,.02.02v.05Z"/><rect class="cls-18" x="11.14" y="2.66" width="1.18" height=".05"/><path class="cls-38" d="M1.65,2.3c-.07.23.01.59.03.83.03.31,0,.62-.22.85.25.02.4-.31.44-.51.05-.24,0-.49,0-.73,0-.13-.04-.37.05-.48.09-.1.15,0,.25-.02.14-.05.04-.16-.06-.2-.24-.09-.43.08-.48.25h0Z"/><path class="cls-39" d="M2.84,9.66h.68c0-.08-.07-.1-.07-.1l-.19-.06-.04-.03-.07-.04v-.17s-.29,0-.29,0l.02.2-.02.2"/><path class="cls-39" d="M2.07,9.52c-.05-.1-.09-.23-.09-.23h-.14l-.08.22s-.03.12,0,.14c0,0,.2.05.35-.02,0,0-.02-.08-.03-.11h0Z"/><path class="cls-6" d="M1.96,2.44c0,.07,0,.13.01.19.01.06.04.13.07.18.05.08.12.15.2.2.04.03.1-.05.14-.06.06-.01.1-.04.14-.08.13-.13.3-.3.25-.5-.03-.12-.07-.21-.18-.24-.18-.05-.45-.06-.58.11-.04.05-.06.13-.07.2h0Z"/><path class="cls-32" d="M2.58,3.67l.41.97s.11.22.27.12c0,0,.02-.05-.08-.39l-.18-.79s-.15-.44-.43-.2c0,0-.07.11.02.3h0Z"/><path class="cls-32" d="M4.21,5.52c-.07.01-.39-.13-.38-.19,0-.11.25-.17.33-.17-.03.05-.11.06-.16.09.1.04.21.06.3.1-.01.04-.13,0-.18,0,.05.04.13.01.18.05-.01.03-.14.03-.18,0,.03.03.15.06.15.06,0,.05-.13,0-.16,0,.02.02.14.06.1.08h0Z"/><path class="cls-32" d="M3.84,5.36l.07-.09c-.5-.46-.68-.72-.68-.72,0,0-.14-.11-.24.05,0,0,0,.18.17.31,0,0,.32.3.68.46h0Z"/><path class="cls-3" d="M4.33,5.34s-.01.03-.04.03c.04.01.05.07,0,.07.01.03,0,.06-.04.07,0,.06-.05.04-.09.03-.09-.03-.18-.07-.26-.1-.13-.06-.31-.19-.39-.25-.02-.05.12-.18.13-.17.06.06.17.15.26.2,0,0,.15-.05.27-.07,0,0,.04.02-.09.1,0,0,.2.05.25.1h0Z"/><path class="cls-30" d="M2.81,4.37c.21,0,.34-.1.39-.17l-.2-.61c-.07-.27-.26-.3-.26-.3-.27.14-.15.5-.15.5.05.22.13.42.22.58Z"/><path class="cls-32" d="M2.65,4.55c.25-.61.13-1.25.13-1.25-.18-.06-.26-.09-.26-.09h-.29s-.31.09-.52.19l.31,1.15h.63s0,0,0,0Z"/><rect class="cls-32" x="2.13" y="2.84" width=".48" height=".32" transform="translate(-.7 5.29) rotate(-88.37)"/><path class="cls-37" d="M2.3,3.02c-.04-.08-.05-.17-.05-.26h.3s-.01.42-.01.42c-.08-.02-.19-.08-.23-.16h0Z"/><path class="cls-32" d="M3.08,9.33c-.05-2.44-.05-3.35-.05-3.35l-.66-.02c.13.89.43,2.77.53,3.37h.18Z"/><path class="cls-19" d="M1.65,6.15c-.07-.53.21-1.3.35-1.46.54.09.82.01.82.01.15.28.27.71.23,1.28l-1.4.16Z"/><path class="cls-19" d="M2.37,6.36s-.06,1-.23,3.03c0,0-.31.05-.43,0-.05-1.2-.05-1.99-.05-1.99l-.04-1.44s.95-.49.74.41Z"/><path class="cls-19" d="M3.16,9.42c0,.15-.3.02-.3.02-.27-.92-.29-2-.29-2l-.3-1.53c.08-.4.78-.31.78-.31,0,0,.11.85.11,3.83Z"/><path class="cls-15" d="M2.21,8.28h0s-.01,0-.01-.01c.02-.18.04-.39.06-.58.02-.16.03-.29.04-.38.02-.22.03-.33.03-.41,0-.03,0-.05,0-.07.03-.43.04-.6.04-.74,0-.04,0-.07,0-.1,0-.23.01-.3.02-.35,0-.04,0-.07,0-.19,0,0,0-.01.01-.01,0,0,.01,0,.01.01,0,.12,0,.15,0,.19,0,.05,0,.12-.02.35,0,.03,0,.07,0,.1,0,.14-.01.32-.04.74,0,.02,0,.04,0,.07,0,.08-.01.19-.03.41,0,.09-.02.22-.04.38-.02.18-.04.39-.06.58,0,0,0,.01-.01.01h0Z"/><path class="cls-32" d="M2.08,2.65c0,.06.03.13.08.15.07.04.1-.03.1-.1,0-.05-.02-.14-.08-.16-.06-.02-.1.06-.11.11h0Z"/><path class="cls-32" d="M2.22,2.81c.03.09.08.16.16.21.08.05.16.08.24.02.06-.05.1-.12.13-.19.05-.17.02-.4-.08-.54-.11-.15-.34-.12-.43.04-.08.13-.05.33,0,.47h0Z"/><path class="cls-37" d="M2.16,2.75h0s0,0,0-.01c.02-.05,0-.11-.02-.12,0,0,0,0,0-.02s0,0,.02,0c.04.02.05.08.03.15,0,0,0,0-.01,0h0Z"/><path class="cls-37" d="M2.11,2.66s0,0-.01,0c0,0,0-.01,0-.01.02,0,.05-.01.07,0,0,0,0,.01,0,.02,0,0-.01,0-.02,0-.01,0-.03,0-.05,0h0Z"/><path class="cls-31" d="M2.63,2.62s.01.03.02.03c.01,0,.02-.02.02-.03,0-.02-.01-.03-.02-.03-.01,0-.02.02-.02.03h0Z"/><path class="cls-31" d="M2.39,2.63s.01.03.02.03c.01,0,.02-.02.02-.03,0-.02-.01-.03-.02-.03-.01,0-.02.02-.02.03h0Z"/><path class="cls-37" d="M2.56,2.78s-.01,0-.01,0c0,0,0-.01,0-.01.03,0,.04-.02.05-.02h0s-.02-.02-.02-.02c-.01,0-.02,0-.02-.01-.01-.02-.02-.03-.03-.1,0,0,0-.01,0-.01s.01,0,.01,0c0,.06.01.08.02.09,0,0,.01,0,.02,0,.02,0,.03.02.04.03,0,0,0,.02,0,.03-.01.02-.03.03-.06.03h0,0Z"/><path class="cls-37" d="M2.35,2.71s.03.02.06.02c.03,0,.05-.01.05-.03,0-.01-.03-.02-.06-.02-.03,0-.05.01-.05.03h0Z"/><path class="cls-37" d="M2.62,2.7s.03.02.06.02c.03,0,.05-.01.05-.03,0-.01-.03-.02-.06-.02-.03,0-.05.01-.05.03Z"/><path class="cls-6" d="M2.36,2.58h-.01s0-.02,0-.03c.02-.03.09-.04.12,0,0,0,0,.02,0,.02,0,0-.02,0-.02,0-.02-.02-.06-.01-.07,0,0,0,0,0-.01,0h0Z"/><path class="cls-6" d="M2.7,2.57h-.01s-.06-.02-.07,0c0,0-.02,0-.02,0s0-.02,0-.02c.03-.03.09-.03.12,0,0,0,0,.02,0,.02,0,0,0,0-.01,0Z"/><path class="cls-6" d="M2.26,2.66s-.05-.03-.06-.05c0-.03-.02-.06-.06-.06-.03,0-.05.04-.06.06,0-.03,0-.07,0-.1,0-.03,0-.06,0-.09,0-.07.02-.1.05-.16.04-.07.09-.12.17-.13.09-.02.24-.03.32.02.04.03,0,.04,0,.16,0,0-.35-.1-.36.34h0Z"/><path class="cls-6" d="M2.75,2.54c.05-.11.07-.3-.13-.38-.05-.02-.17-.04-.22,0-.09.1.11.14.16.15.09.01.15.04.18.22h0Z"/><path class="cls-37" d="M2.5,2.85s-.07-.03-.09-.06c0,0,0-.01,0-.01s.01,0,.01,0c.01.03.04.06.09.05,0,0,.01,0,.01,0,0,0,0,.01,0,.01,0,0-.02,0-.03,0h0Z"/><path class="cls-30" d="M2.58,3.23l.21.08s.03.25.16.49c.05.22-.1.25-.13.88,0,.19-.74.13-.86.03-.04-.03-.13-.6-.14-.65-.03-.09.06-.11.11-.29.03-.11.04-.29-.11-.44l.34-.11s.04.16.26.16c0,0,.23,0,.15-.15h0Z"/><path class="cls-32" d="M1.56,3.64l-.21.88s-.04.21.03.22c0,0,.19.1.31-.27l.24-.7s.14-.48-.21-.37c0,0-.12.05-.17.25h0Z"/><path class="cls-21" d="M2.76,2.73s-.25-.05-.45.03c0,0-.04.13.02.24,0,0,.21.18.35-.03,0,0,.08-.13.09-.24h0Z"/><path class="cls-21" d="M2.24,2.66l.08.12v-.02s-.07-.11-.07-.11h0s-.02,0-.02,0h0Z"/><path class="cls-21" d="M2.22,2.8l.13.18h-.01s-.12-.15-.12-.15c0,0,0-.02,0-.03h0Z"/><path class="cls-24" d="M2.52,2.82s-.06,0-.1-.01h0s0-.01,0-.01c.09.02.18.01.27-.01h0s0,.01,0,.01c-.06.02-.12.02-.18.02h0Z"/><path class="cls-24" d="M2.54,2.89s-.05,0-.07,0h0s0-.01,0-.01c.05.01.09.01.16,0h0s0,.01,0,.01c-.04,0-.07,0-.1,0h0Z"/><path class="cls-24" d="M2.54,2.96s-.08,0-.11-.02h0s0-.01,0-.01c.07.03.16.03.23,0h0s0,.01,0,.01c-.04.01-.08.02-.12.02h0Z"/><path class="cls-32" d="M1.75,6.13c-.09-.1-.1-.41-.04-.43.04-.02.2.06.26.11,0,.03,0,.04-.13.02,0,.11.1.19.09.29-.04,0-.1-.1-.12-.14,0,.04.09.12.08.18-.03,0-.14-.12-.12-.17-.02.04.07.18.07.18-.04.02-.12-.13-.12-.16-.01.02.06.15.02.13h0Z"/><path class="cls-32" d="M1.77,5.7l-.09.05c-.28-.54-.36-1.01-.36-1.01,0-.15.05-.3.05-.3.19-.07.28.07.28.07,0,0-.09.5.11,1.19h0Z"/><path class="cls-19" d="M1.96,3.29l.11-.04.1.44h.53l-.03-.43.11.04s.03.25.16.49c.05.21-.1.25-.13.88,0,.19-.85.16-.91.02-.03-.06-.13-.56-.15-.6,0,0,.25-.14.24-.55l-.04-.26h0Z"/><polygon class="cls-19" points="2.9 4.13 1.77 4.13 1.77 4.64 1.72 5.36 3.01 5.36 2.9 4.67 2.9 4.13"/><path class="cls-30" d="M1.77,4.37l.23-.68s.05-.29-.11-.37c0,0-.27.03-.34.26l-.21.54s.05.23.43.25h0Z"/><path class="cls-15" d="M2.35,5.21c-.15,0-.43,0-.54-.07,0,0,0-.01,0-.02,0,0,.01,0,.02,0,.1.06.38.06.53.06h0c.18,0,.44-.02.56-.09,0,0,.01,0,.02,0,0,0,0,.01,0,.01-.16.09-.5.09-.57.09h-.01Z"/><path class="cls-43" d="M2.72,4.44h-.59s-.01,0-.01-.01v-.59s0-.01.01-.01h.59s.01,0,.01.01v.59s0,.01-.01.01ZM2.14,4.42h.57v-.57h-.57v.57Z"/><path class="cls-43" d="M2.62,3.92h-.41s-.01,0-.01-.01,0-.01.01-.01h.41s.01,0,.01.01,0,.01-.01.01Z"/><path class="cls-30" d="M2.29,1.97c.14-.03.3.02.4.13.04.04.08.09.12.24-.06.18-.85.05-.85.05,0,0,0-.34.33-.42h0Z"/><path class="cls-19" d="M2.3,1.95s.04.04.07.03c.07-.03-.03-.07-.07-.03Z"/><path class="cls-19" d="M2.01,2.4s.29.23.96.13c0,0,.27-.04-.18-.19l-.79.06h0Z"/><path class="cls-3" d="M2.04,6.07s-.03.02-.05,0c.02.04,0,.09-.05.05-.01.03-.06.07-.09.05-.03.05-.11,0-.13-.03-.07-.11-.07-.16-.09-.25-.03-.14-.11-.35-.13-.45.02-.05.2-.06.21-.05,0,.09.04.23.08.32,0,0,.14.05.25.12,0,0,.02.04-.13.03,0,0,.12.16.13.23h0Z"/><path class="cls-23" d="M1.28,6.81c-.25.03-.27.05-.3.3-.03-.25-.05-.27-.3-.3.25-.03.27-.05.3-.3.03.25.05.27.3.3Z"/><path class="cls-23" d="M6.48,4.49c-.25.03-.27.05-.3.3-.03-.25-.05-.27-.3-.3.25-.03.27-.05.3-.3.03.25.05.27.3.3Z"/><path class="cls-23" d="M8.87,1.21c-.25.03-.27.05-.3.3-.03-.25-.05-.27-.3-.3.25-.03.27-.05.3-.3.03.25.05.27.3.3h0Z"/><path class="cls-23" d="M11.46,5.24c-.25.03-.27.05-.3.3-.03-.25-.05-.27-.3-.3.25-.03.27-.05.3-.3.03.25.05.27.3.3Z"/><path class="cls-23" d="M8.32,6.46c-.25.03-.27.05-.3.3-.03-.25-.05-.27-.3-.3.25-.03.27-.05.3-.3.03.25.05.27.3.3Z"/></svg>